%TF.GenerationSoftware,KiCad,Pcbnew,8.0.8*%
%TF.CreationDate,2025-06-30T12:07:11+05:30*%
%TF.ProjectId,openlog,6f70656e-6c6f-4672-9e6b-696361645f70,rev?*%
%TF.SameCoordinates,Original*%
%TF.FileFunction,Copper,L1,Top*%
%TF.FilePolarity,Positive*%
%FSLAX46Y46*%
G04 Gerber Fmt 4.6, Leading zero omitted, Abs format (unit mm)*
G04 Created by KiCad (PCBNEW 8.0.8) date 2025-06-30 12:07:11*
%MOMM*%
%LPD*%
G01*
G04 APERTURE LIST*
G04 Aperture macros list*
%AMRoundRect*
0 Rectangle with rounded corners*
0 $1 Rounding radius*
0 $2 $3 $4 $5 $6 $7 $8 $9 X,Y pos of 4 corners*
0 Add a 4 corners polygon primitive as box body*
4,1,4,$2,$3,$4,$5,$6,$7,$8,$9,$2,$3,0*
0 Add four circle primitives for the rounded corners*
1,1,$1+$1,$2,$3*
1,1,$1+$1,$4,$5*
1,1,$1+$1,$6,$7*
1,1,$1+$1,$8,$9*
0 Add four rect primitives between the rounded corners*
20,1,$1+$1,$2,$3,$4,$5,0*
20,1,$1+$1,$4,$5,$6,$7,0*
20,1,$1+$1,$6,$7,$8,$9,0*
20,1,$1+$1,$8,$9,$2,$3,0*%
G04 Aperture macros list end*
%TA.AperFunction,SMDPad,CuDef*%
%ADD10RoundRect,0.200000X-0.200000X-0.275000X0.200000X-0.275000X0.200000X0.275000X-0.200000X0.275000X0*%
%TD*%
%TA.AperFunction,SMDPad,CuDef*%
%ADD11RoundRect,0.225000X-0.225000X-0.250000X0.225000X-0.250000X0.225000X0.250000X-0.225000X0.250000X0*%
%TD*%
%TA.AperFunction,ComponentPad*%
%ADD12RoundRect,0.250000X-0.600000X-0.725000X0.600000X-0.725000X0.600000X0.725000X-0.600000X0.725000X0*%
%TD*%
%TA.AperFunction,ComponentPad*%
%ADD13O,1.700000X1.950000*%
%TD*%
%TA.AperFunction,ComponentPad*%
%ADD14R,1.000000X1.000000*%
%TD*%
%TA.AperFunction,ComponentPad*%
%ADD15R,1.524000X1.524000*%
%TD*%
%TA.AperFunction,ComponentPad*%
%ADD16C,1.524000*%
%TD*%
%TA.AperFunction,SMDPad,CuDef*%
%ADD17R,1.600000X1.000000*%
%TD*%
%TA.AperFunction,SMDPad,CuDef*%
%ADD18R,2.500000X3.000000*%
%TD*%
%TA.AperFunction,SMDPad,CuDef*%
%ADD19RoundRect,0.218750X-0.218750X-0.256250X0.218750X-0.256250X0.218750X0.256250X-0.218750X0.256250X0*%
%TD*%
%TA.AperFunction,SMDPad,CuDef*%
%ADD20RoundRect,0.150000X-0.512500X-0.150000X0.512500X-0.150000X0.512500X0.150000X-0.512500X0.150000X0*%
%TD*%
%TA.AperFunction,SMDPad,CuDef*%
%ADD21R,1.200000X0.700000*%
%TD*%
%TA.AperFunction,SMDPad,CuDef*%
%ADD22R,0.800000X1.000000*%
%TD*%
%TA.AperFunction,SMDPad,CuDef*%
%ADD23R,1.200000X1.000000*%
%TD*%
%TA.AperFunction,SMDPad,CuDef*%
%ADD24R,2.800000X1.000000*%
%TD*%
%TA.AperFunction,SMDPad,CuDef*%
%ADD25R,1.900000X1.300000*%
%TD*%
%TA.AperFunction,SMDPad,CuDef*%
%ADD26R,1.600000X0.550000*%
%TD*%
%TA.AperFunction,SMDPad,CuDef*%
%ADD27R,0.550000X1.600000*%
%TD*%
%TA.AperFunction,ViaPad*%
%ADD28C,0.600000*%
%TD*%
%TA.AperFunction,Conductor*%
%ADD29C,0.600000*%
%TD*%
%TA.AperFunction,Conductor*%
%ADD30C,0.200000*%
%TD*%
G04 APERTURE END LIST*
D10*
%TO.P,R3,1*%
%TO.N,+3.3V*%
X127575000Y-61800000D03*
%TO.P,R3,2*%
%TO.N,Net-(U2-~{RESET}{slash}PC6)*%
X129225000Y-61800000D03*
%TD*%
D11*
%TO.P,C2,1*%
%TO.N,+3.3V*%
X134625000Y-65800000D03*
%TO.P,C2,2*%
%TO.N,GND*%
X136175000Y-65800000D03*
%TD*%
D12*
%TO.P,J3,1,Pin_1*%
%TO.N,GND*%
X116000000Y-56800000D03*
D13*
%TO.P,J3,2,Pin_2*%
X118500000Y-56800000D03*
%TO.P,J3,3,Pin_3*%
%TO.N,RAW*%
X121000000Y-56800000D03*
%TO.P,J3,4,Pin_4*%
%TO.N,txo*%
X123500000Y-56800000D03*
%TO.P,J3,5,Pin_5*%
%TO.N,RXI*%
X126000000Y-56800000D03*
%TO.P,J3,6,Pin_6*%
%TO.N,DTR*%
X128500000Y-56800000D03*
%TD*%
D14*
%TO.P,J1,1,Pin_1*%
%TO.N,+3.3V*%
X131400000Y-78200000D03*
%TD*%
D15*
%TO.P,J4,1,Pin_1*%
%TO.N,MISO*%
X141200000Y-65400000D03*
D16*
%TO.P,J4,2,Pin_2*%
%TO.N,MOSI*%
X141200000Y-67400000D03*
%TO.P,J4,3,Pin_3*%
%TO.N,SCK*%
X141200000Y-69400000D03*
%TO.P,J4,4,Pin_4*%
%TO.N,RST*%
X141200000Y-71400000D03*
%TD*%
D17*
%TO.P,Y1,1,1*%
%TO.N,Net-(U2-XTAL2{slash}PB7)*%
X128300000Y-77530000D03*
%TO.P,Y1,2,2*%
%TO.N,Net-(U2-XTAL1{slash}PB6)*%
X128300000Y-80070000D03*
D18*
%TO.P,Y1,3,3*%
%TO.N,GND*%
X121750000Y-78800000D03*
%TD*%
D11*
%TO.P,C4,1*%
%TO.N,Net-(U2-~{RESET}{slash}PC6)*%
X134625000Y-70820000D03*
%TO.P,C4,2*%
%TO.N,DTR*%
X136175000Y-70820000D03*
%TD*%
D10*
%TO.P,R2,1*%
%TO.N,SCK*%
X134575000Y-75840000D03*
%TO.P,R2,2*%
%TO.N,Net-(D1-A)*%
X136225000Y-75840000D03*
%TD*%
D19*
%TO.P,D2,1,K*%
%TO.N,GND*%
X139000000Y-76800000D03*
%TO.P,D2,2,A*%
%TO.N,Net-(D2-A)*%
X140575000Y-76800000D03*
%TD*%
%TO.P,D1,1,K*%
%TO.N,GND*%
X134412500Y-78600000D03*
%TO.P,D1,2,A*%
%TO.N,Net-(D1-A)*%
X135987500Y-78600000D03*
%TD*%
D20*
%TO.P,U1,1,IN*%
%TO.N,RAW*%
X121400000Y-61600000D03*
%TO.P,U1,2,GND*%
%TO.N,GND*%
X121400000Y-62550000D03*
%TO.P,U1,3,EN*%
%TO.N,RAW*%
X121400000Y-63500000D03*
%TO.P,U1,4,BP*%
%TO.N,unconnected-(U1-BP-Pad4)*%
X123675000Y-63500000D03*
%TO.P,U1,5,OUT*%
%TO.N,+3.3V*%
X123675000Y-61600000D03*
%TD*%
D11*
%TO.P,C1,1*%
%TO.N,GND*%
X134050000Y-62200000D03*
%TO.P,C1,2*%
%TO.N,+3.3V*%
X135600000Y-62200000D03*
%TD*%
D10*
%TO.P,R1,1*%
%TO.N,Net-(U2-PD5)*%
X134575000Y-73330000D03*
%TO.P,R1,2*%
%TO.N,Net-(D2-A)*%
X136225000Y-73330000D03*
%TD*%
D21*
%TO.P,J2,1,NC*%
%TO.N,unconnected-(J2-NC-Pad1)*%
X116845000Y-71980000D03*
%TO.P,J2,2,CS*%
%TO.N,CS*%
X116845000Y-70880000D03*
%TO.P,J2,3,DI*%
%TO.N,MOSI*%
X116845000Y-69780000D03*
%TO.P,J2,4,VCC*%
%TO.N,+3.3V*%
X116845000Y-68680000D03*
%TO.P,J2,5,SCK*%
%TO.N,SCK*%
X116845000Y-67580000D03*
%TO.P,J2,6,GND*%
%TO.N,GND*%
X116845000Y-66480000D03*
%TO.P,J2,7,DO*%
%TO.N,MISO*%
X116845000Y-65380000D03*
%TO.P,J2,8,RSV*%
%TO.N,unconnected-(J2-RSV-Pad8)*%
X116845000Y-64280000D03*
%TO.P,J2,9*%
%TO.N,N/C*%
X116845000Y-63330000D03*
D22*
%TO.P,J2,10*%
X106345000Y-62380000D03*
D23*
%TO.P,J2,11*%
X112545000Y-62380000D03*
D24*
X102195000Y-62380000D03*
D23*
X116845000Y-73530000D03*
D25*
X101745000Y-75880000D03*
D21*
%TO.P,J2,CD1,CD2*%
X106660000Y-76165000D03*
%TO.P,J2,CD2,CD2*%
%TO.N,GND*%
X112710000Y-76125000D03*
%TO.P,J2,GND1,SHIELD*%
X115260000Y-76165000D03*
%TO.P,J2,GND2,SHIELD*%
X110000000Y-76200000D03*
%TD*%
D11*
%TO.P,C3,1*%
%TO.N,+3.3V*%
X134625000Y-68310000D03*
%TO.P,C3,2*%
%TO.N,GND*%
X136175000Y-68310000D03*
%TD*%
D26*
%TO.P,U2,1,PD3*%
%TO.N,unconnected-(U2-PD3-Pad1)*%
X121300000Y-67200000D03*
%TO.P,U2,2,PD4*%
%TO.N,unconnected-(U2-PD4-Pad2)*%
X121300000Y-68000000D03*
%TO.P,U2,3,GND*%
%TO.N,GND*%
X121300000Y-68800000D03*
%TO.P,U2,4,VCC*%
%TO.N,+3.3V*%
X121300000Y-69600000D03*
%TO.P,U2,5,GND*%
%TO.N,GND*%
X121300000Y-70400000D03*
%TO.P,U2,6,VCC*%
%TO.N,+3.3V*%
X121300000Y-71200000D03*
%TO.P,U2,7,XTAL1/PB6*%
%TO.N,Net-(U2-XTAL1{slash}PB6)*%
X121300000Y-72000000D03*
%TO.P,U2,8,XTAL2/PB7*%
%TO.N,Net-(U2-XTAL2{slash}PB7)*%
X121300000Y-72800000D03*
D27*
%TO.P,U2,9,PD5*%
%TO.N,Net-(U2-PD5)*%
X122750000Y-74250000D03*
%TO.P,U2,10,PD6*%
%TO.N,unconnected-(U2-PD6-Pad10)*%
X123550000Y-74250000D03*
%TO.P,U2,11,PD7*%
%TO.N,unconnected-(U2-PD7-Pad11)*%
X124350000Y-74250000D03*
%TO.P,U2,12,PB0*%
%TO.N,unconnected-(U2-PB0-Pad12)*%
X125150000Y-74250000D03*
%TO.P,U2,13,PB1*%
%TO.N,unconnected-(U2-PB1-Pad13)*%
X125950000Y-74250000D03*
%TO.P,U2,14,PB2*%
%TO.N,CS*%
X126750000Y-74250000D03*
%TO.P,U2,15,PB3*%
%TO.N,MOSI*%
X127550000Y-74250000D03*
%TO.P,U2,16,PB4*%
%TO.N,MISO*%
X128350000Y-74250000D03*
D26*
%TO.P,U2,17,PB5*%
%TO.N,SCK*%
X129800000Y-72800000D03*
%TO.P,U2,18,AVCC*%
%TO.N,+3.3V*%
X129800000Y-72000000D03*
%TO.P,U2,19,ADC6*%
%TO.N,unconnected-(U2-ADC6-Pad19)*%
X129800000Y-71200000D03*
%TO.P,U2,20,AREF*%
%TO.N,+3.3V*%
X129800000Y-70400000D03*
%TO.P,U2,21,GND*%
%TO.N,GND*%
X129800000Y-69600000D03*
%TO.P,U2,22,ADC7*%
%TO.N,unconnected-(U2-ADC7-Pad22)*%
X129800000Y-68800000D03*
%TO.P,U2,23,PC0*%
%TO.N,unconnected-(U2-PC0-Pad23)*%
X129800000Y-68000000D03*
%TO.P,U2,24,PC1*%
%TO.N,unconnected-(U2-PC1-Pad24)*%
X129800000Y-67200000D03*
D27*
%TO.P,U2,25,PC2*%
%TO.N,CD*%
X128350000Y-65750000D03*
%TO.P,U2,26,PC3*%
%TO.N,unconnected-(U2-PC3-Pad26)*%
X127550000Y-65750000D03*
%TO.P,U2,27,PC4*%
%TO.N,unconnected-(U2-PC4-Pad27)*%
X126750000Y-65750000D03*
%TO.P,U2,28,PC5*%
%TO.N,unconnected-(U2-PC5-Pad28)*%
X125950000Y-65750000D03*
%TO.P,U2,29,~{RESET}/PC6*%
%TO.N,Net-(U2-~{RESET}{slash}PC6)*%
X125150000Y-65750000D03*
%TO.P,U2,30,PD0*%
%TO.N,RXI*%
X124350000Y-65750000D03*
%TO.P,U2,31,PD1*%
%TO.N,txo*%
X123550000Y-65750000D03*
%TO.P,U2,32,PD2*%
%TO.N,unconnected-(U2-PD2-Pad32)*%
X122750000Y-65750000D03*
%TD*%
D28*
%TO.N,+3.3V*%
X119538140Y-69990078D03*
X125382000Y-71218000D03*
X124951600Y-61800000D03*
X119124255Y-69392395D03*
%TO.N,GND*%
X119878753Y-68901749D03*
X124051600Y-69700000D03*
X118503989Y-66845439D03*
X123320023Y-69681573D03*
%TO.N,DTR*%
X132921100Y-70023900D03*
%TO.N,Net-(U2-~{RESET}{slash}PC6)*%
X133134000Y-61460500D03*
X133747300Y-71468500D03*
%TO.N,MISO*%
X115741100Y-65380000D03*
X132866300Y-74250000D03*
%TO.N,SCK*%
X117956600Y-67580000D03*
X123436900Y-76030300D03*
%TO.N,CS*%
X122616100Y-72800000D03*
X119043400Y-70741900D03*
%TO.N,MOSI*%
X126479200Y-62700000D03*
X128483300Y-72947400D03*
%TO.N,RAW*%
X121000000Y-64305200D03*
%TO.N,RXI*%
X125870200Y-63924100D03*
%TO.N,txo*%
X123500000Y-64443600D03*
%TO.N,Net-(U2-XTAL1{slash}PB6)*%
X124100600Y-80050000D03*
X123787200Y-72000000D03*
%TD*%
D29*
%TO.N,+3.3V*%
X123675000Y-61600000D02*
X124751600Y-61600000D01*
X135600000Y-62200000D02*
X135600000Y-62057600D01*
D30*
X123400000Y-70400000D02*
X123175000Y-70400000D01*
X128725000Y-72000000D02*
X129800000Y-72000000D01*
X115845000Y-74430000D02*
X115845000Y-69030000D01*
X122375000Y-71200000D02*
X121300000Y-71200000D01*
X120225000Y-71200000D02*
X120100000Y-71075000D01*
X123175000Y-70400000D02*
X122375000Y-71200000D01*
D29*
X134625000Y-65800000D02*
X131596100Y-65800000D01*
D30*
X123400000Y-70400000D02*
X124564000Y-70400000D01*
X116195000Y-68680000D02*
X116845000Y-68680000D01*
X129800000Y-70400000D02*
X123400000Y-70400000D01*
X124564000Y-70400000D02*
X125382000Y-71218000D01*
X121397400Y-71102600D02*
X127827600Y-71102600D01*
X119743400Y-72531600D02*
X117845000Y-74430000D01*
D29*
X127575000Y-61800000D02*
X127573300Y-61798300D01*
D30*
X115845000Y-69030000D02*
X116195000Y-68680000D01*
X119124255Y-69392395D02*
X119743400Y-70011540D01*
X120225000Y-69600000D02*
X121300000Y-69600000D01*
D29*
X124751600Y-61600000D02*
X124951600Y-61800000D01*
X127573300Y-61798300D02*
X124953300Y-61798300D01*
D30*
X127827600Y-71102600D02*
X128725000Y-72000000D01*
X117845000Y-74430000D02*
X115845000Y-74430000D01*
D29*
X131596100Y-65800000D02*
X127596100Y-61800000D01*
D30*
X119743400Y-70011540D02*
X119743400Y-72531600D01*
D29*
X134101200Y-60558800D02*
X128837300Y-60558800D01*
D30*
X119538140Y-69990078D02*
X119928218Y-69600000D01*
D29*
X134625000Y-65800000D02*
X134625000Y-68310000D01*
D30*
X120100000Y-69725000D02*
X120225000Y-69600000D01*
X121300000Y-71200000D02*
X120225000Y-71200000D01*
D29*
X128837300Y-60558800D02*
X127596100Y-61800000D01*
X135600000Y-62057600D02*
X134101200Y-60558800D01*
X127596100Y-61800000D02*
X127575000Y-61800000D01*
X124953300Y-61798300D02*
X124951600Y-61800000D01*
D30*
X119928218Y-69600000D02*
X121300000Y-69600000D01*
X121300000Y-71200000D02*
X121397400Y-71102600D01*
X120100000Y-71075000D02*
X120100000Y-69725000D01*
D29*
%TO.N,GND*%
X134050000Y-62200000D02*
X134050000Y-62339200D01*
X121400000Y-62550000D02*
X120619900Y-62550000D01*
X136175000Y-64464200D02*
X136175000Y-65800000D01*
X112109200Y-76125000D02*
X112710000Y-76125000D01*
X118500000Y-60430100D02*
X118500000Y-56800000D01*
X119898300Y-78800000D02*
X117263300Y-76165000D01*
X110000000Y-76200000D02*
X111433300Y-76200000D01*
D30*
X128725000Y-69600000D02*
X127925000Y-68800000D01*
X123320023Y-69681573D02*
X123118427Y-69681573D01*
D29*
X120619900Y-62550000D02*
X118500000Y-60430100D01*
X111433300Y-76200000D02*
X111508300Y-76125000D01*
D30*
X127925000Y-68800000D02*
X121300000Y-68800000D01*
D29*
X116845000Y-66480000D02*
X118138550Y-66480000D01*
X136175000Y-65800000D02*
X136175000Y-68310000D01*
D30*
X119878753Y-68901749D02*
X119980502Y-68800000D01*
D29*
X134371000Y-78641500D02*
X135448100Y-79718600D01*
X136567500Y-79718600D02*
X139000000Y-77286100D01*
D30*
X119980502Y-68800000D02*
X121300000Y-68800000D01*
D29*
X116845000Y-66480000D02*
X118046700Y-66480000D01*
X118046700Y-65123200D02*
X120619900Y-62550000D01*
X129901500Y-78800000D02*
X121750000Y-78800000D01*
X136664200Y-61565800D02*
X130278500Y-55180100D01*
X121750000Y-78800000D02*
X119898300Y-78800000D01*
X135448100Y-79718600D02*
X136567500Y-79718600D01*
X136664200Y-62849000D02*
X136664200Y-61565800D01*
X120119900Y-55180100D02*
X118500000Y-56800000D01*
X118500000Y-56800000D02*
X116000000Y-56800000D01*
X115260000Y-76165000D02*
X114058300Y-76165000D01*
X114018300Y-76125000D02*
X114018300Y-68105000D01*
X134412500Y-78600000D02*
X134371000Y-78641500D01*
X139000000Y-77286100D02*
X139000000Y-76800000D01*
X134050000Y-62339200D02*
X135612000Y-63901200D01*
X116845000Y-66480000D02*
X115643300Y-66480000D01*
D30*
X122375000Y-68800000D02*
X123275000Y-69700000D01*
X121300000Y-68800000D02*
X122375000Y-68800000D01*
D29*
X130403200Y-79301700D02*
X129901500Y-78800000D01*
X134371000Y-78641500D02*
X133710800Y-79301700D01*
X114018300Y-68105000D02*
X115643300Y-66480000D01*
X112710000Y-76125000D02*
X114018300Y-76125000D01*
X114018300Y-76125000D02*
X114058300Y-76165000D01*
X118138550Y-66480000D02*
X118503989Y-66845439D01*
D30*
X123118427Y-69681573D02*
X122400000Y-70400000D01*
D29*
X130278500Y-55180100D02*
X120119900Y-55180100D01*
X133710800Y-79301700D02*
X130403200Y-79301700D01*
X118046700Y-66480000D02*
X118046700Y-65123200D01*
X117263300Y-76165000D02*
X115260000Y-76165000D01*
D30*
X129800000Y-69600000D02*
X128725000Y-69600000D01*
D29*
X135612000Y-63901200D02*
X136664200Y-62849000D01*
X112109200Y-76125000D02*
X111508300Y-76125000D01*
D30*
X123275000Y-69700000D02*
X124051600Y-69700000D01*
X122400000Y-70400000D02*
X121300000Y-70400000D01*
D29*
X135612000Y-63901200D02*
X136175000Y-64464200D01*
D30*
%TO.N,DTR*%
X135378900Y-70023900D02*
X136175000Y-70820000D01*
X132921100Y-70023900D02*
X135378900Y-70023900D01*
%TO.N,Net-(U2-~{RESET}{slash}PC6)*%
X131038900Y-69057500D02*
X132801400Y-70820000D01*
X125150000Y-64648300D02*
X128785300Y-64648300D01*
X128785300Y-64648300D02*
X131038900Y-66901900D01*
X131038900Y-66901900D02*
X131038900Y-69057500D01*
X132801400Y-70820000D02*
X133747300Y-70820000D01*
X133747300Y-70820000D02*
X133747300Y-71468500D01*
X133134000Y-61460500D02*
X129564500Y-61460500D01*
X134625000Y-70820000D02*
X133747300Y-70820000D01*
X125150000Y-65750000D02*
X125150000Y-64648300D01*
X129564500Y-61460500D02*
X129225000Y-61800000D01*
%TO.N,Net-(D1-A)*%
X136225000Y-75840000D02*
X136225000Y-78362500D01*
X136225000Y-78362500D02*
X135987500Y-78600000D01*
%TO.N,Net-(D2-A)*%
X140575000Y-76800000D02*
X137105000Y-73330000D01*
X137105000Y-73330000D02*
X136225000Y-73330000D01*
%TO.N,MISO*%
X128350000Y-74250000D02*
X132866300Y-74250000D01*
X116845000Y-65380000D02*
X115741100Y-65380000D01*
%TO.N,SCK*%
X129800000Y-72800000D02*
X133863900Y-72800000D01*
X138945000Y-69400000D02*
X135400000Y-72945000D01*
X116845000Y-67580000D02*
X117746700Y-67580000D01*
X134384700Y-76030300D02*
X134575000Y-75840000D01*
X141200000Y-69400000D02*
X138945000Y-69400000D01*
X134130100Y-72533800D02*
X134988800Y-72533800D01*
X135400000Y-72945000D02*
X135400000Y-75015000D01*
X135400000Y-75015000D02*
X134575000Y-75840000D01*
X133863900Y-72800000D02*
X134130100Y-72533800D01*
X123436900Y-76030300D02*
X134384700Y-76030300D01*
X134988800Y-72533800D02*
X135400000Y-72945000D01*
X117746700Y-67580000D02*
X117956600Y-67580000D01*
%TO.N,CS*%
X125032100Y-72800000D02*
X122616100Y-72800000D01*
X118905300Y-70880000D02*
X119043400Y-70741900D01*
X126750000Y-73148300D02*
X126868500Y-73148300D01*
X127421800Y-72595000D02*
X127421800Y-72013600D01*
X127421800Y-72013600D02*
X127010800Y-71602600D01*
X127010800Y-71602600D02*
X126229500Y-71602600D01*
X126868500Y-73148300D02*
X127421800Y-72595000D01*
X126229500Y-71602600D02*
X125032100Y-72800000D01*
X116845000Y-70880000D02*
X118905300Y-70880000D01*
X126750000Y-74250000D02*
X126750000Y-73148300D01*
%TO.N,MOSI*%
X139612400Y-67400000D02*
X141200000Y-67400000D01*
X116845000Y-69780000D02*
X117746700Y-69780000D01*
X127550000Y-74250000D02*
X127550000Y-73148300D01*
X119770200Y-67756500D02*
X119770200Y-66624800D01*
X122643500Y-63167600D02*
X123111100Y-62700000D01*
X122643500Y-63751500D02*
X122643500Y-63167600D01*
X119770200Y-66624800D02*
X122643500Y-63751500D01*
X117746700Y-69780000D02*
X119770200Y-67756500D01*
X123111100Y-62700000D02*
X126479200Y-62700000D01*
X127454300Y-62700000D02*
X133959400Y-69205100D01*
X126479200Y-62700000D02*
X127454300Y-62700000D01*
X133959400Y-69205100D02*
X137807300Y-69205100D01*
X127550000Y-73148300D02*
X128282400Y-73148300D01*
X137807300Y-69205100D02*
X139612400Y-67400000D01*
X128282400Y-73148300D02*
X128483300Y-72947400D01*
%TO.N,RAW*%
X121000000Y-61200000D02*
X121400000Y-61600000D01*
X121000000Y-56800000D02*
X121000000Y-61200000D01*
X121400000Y-63905200D02*
X121000000Y-64305200D01*
X121400000Y-63500000D02*
X121400000Y-63905200D01*
%TO.N,RXI*%
X125074200Y-63924100D02*
X125870200Y-63924100D01*
X124350000Y-64648300D02*
X125074200Y-63924100D01*
X124350000Y-65750000D02*
X124350000Y-64648300D01*
%TO.N,txo*%
X123550000Y-64493600D02*
X123500000Y-64443600D01*
X123550000Y-65750000D02*
X123550000Y-64648300D01*
X123550000Y-64648300D02*
X123550000Y-64493600D01*
%TO.N,Net-(U2-PD5)*%
X122750000Y-74250000D02*
X122750000Y-75351700D01*
X134575000Y-73408200D02*
X134575000Y-73330000D01*
X122750000Y-75351700D02*
X132631500Y-75351700D01*
X132631500Y-75351700D02*
X134575000Y-73408200D01*
%TO.N,Net-(U2-XTAL2{slash}PB7)*%
X121300000Y-72800000D02*
X121300000Y-74744200D01*
X121300000Y-74744200D02*
X124085800Y-77530000D01*
X124085800Y-77530000D02*
X128300000Y-77530000D01*
%TO.N,Net-(U2-XTAL1{slash}PB6)*%
X128300000Y-80070000D02*
X127198300Y-80070000D01*
X127198300Y-80070000D02*
X127178300Y-80050000D01*
X121300000Y-72000000D02*
X123787200Y-72000000D01*
X127178300Y-80050000D02*
X124100600Y-80050000D01*
%TD*%
%TA.AperFunction,Conductor*%
%TO.N,GND*%
G36*
X123167514Y-67044089D02*
G01*
X123167517Y-67044091D01*
X123227127Y-67050500D01*
X123872872Y-67050499D01*
X123932483Y-67044091D01*
X123932486Y-67044089D01*
X123936744Y-67043632D01*
X123963254Y-67043632D01*
X123967514Y-67044089D01*
X123967517Y-67044091D01*
X124027127Y-67050500D01*
X124672872Y-67050499D01*
X124732483Y-67044091D01*
X124732486Y-67044089D01*
X124736744Y-67043632D01*
X124763254Y-67043632D01*
X124767514Y-67044089D01*
X124767517Y-67044091D01*
X124827127Y-67050500D01*
X125472872Y-67050499D01*
X125532483Y-67044091D01*
X125532486Y-67044089D01*
X125536744Y-67043632D01*
X125563254Y-67043632D01*
X125567514Y-67044089D01*
X125567517Y-67044091D01*
X125627127Y-67050500D01*
X126272872Y-67050499D01*
X126332483Y-67044091D01*
X126332486Y-67044089D01*
X126336744Y-67043632D01*
X126363254Y-67043632D01*
X126367514Y-67044089D01*
X126367517Y-67044091D01*
X126427127Y-67050500D01*
X127072872Y-67050499D01*
X127132483Y-67044091D01*
X127132486Y-67044089D01*
X127136744Y-67043632D01*
X127163254Y-67043632D01*
X127167514Y-67044089D01*
X127167517Y-67044091D01*
X127227127Y-67050500D01*
X127872872Y-67050499D01*
X127932483Y-67044091D01*
X127932486Y-67044089D01*
X127936744Y-67043632D01*
X127963254Y-67043632D01*
X127967514Y-67044089D01*
X127967517Y-67044091D01*
X128027127Y-67050500D01*
X128375500Y-67050499D01*
X128442539Y-67070183D01*
X128488294Y-67122987D01*
X128499500Y-67174499D01*
X128499500Y-67522869D01*
X128499501Y-67522879D01*
X128506367Y-67586751D01*
X128506367Y-67613257D01*
X128505909Y-67617516D01*
X128505909Y-67617517D01*
X128499500Y-67677127D01*
X128499500Y-67677129D01*
X128499500Y-67677133D01*
X128499500Y-68322870D01*
X128499501Y-68322879D01*
X128506367Y-68386751D01*
X128506367Y-68413257D01*
X128505909Y-68417516D01*
X128505909Y-68417517D01*
X128499500Y-68477127D01*
X128499500Y-68477132D01*
X128499500Y-68477133D01*
X128499500Y-69122870D01*
X128499501Y-69122876D01*
X128506619Y-69189092D01*
X128506619Y-69215599D01*
X128500000Y-69277169D01*
X128500000Y-69350000D01*
X128518591Y-69350000D01*
X128585630Y-69369685D01*
X128617855Y-69399686D01*
X128642454Y-69432546D01*
X128642455Y-69432546D01*
X128642456Y-69432548D01*
X128733540Y-69500734D01*
X128775411Y-69556668D01*
X128780395Y-69626359D01*
X128746909Y-69687682D01*
X128733540Y-69699266D01*
X128635355Y-69772768D01*
X128633560Y-69770370D01*
X128585404Y-69796666D01*
X128559046Y-69799500D01*
X124650669Y-69799500D01*
X124650653Y-69799499D01*
X124643057Y-69799499D01*
X124484943Y-69799499D01*
X124477347Y-69799499D01*
X124477331Y-69799500D01*
X123261669Y-69799500D01*
X123261653Y-69799499D01*
X123254057Y-69799499D01*
X123095943Y-69799499D01*
X122999710Y-69825285D01*
X122943214Y-69840423D01*
X122897041Y-69867082D01*
X122897040Y-69867082D01*
X122806284Y-69919479D01*
X122799985Y-69924313D01*
X122734816Y-69949507D01*
X122666371Y-69935468D01*
X122616381Y-69886654D01*
X122600499Y-69825940D01*
X122600499Y-69277128D01*
X122594091Y-69217517D01*
X122594090Y-69217516D01*
X122593380Y-69210904D01*
X122593381Y-69184393D01*
X122599999Y-69122842D01*
X122600000Y-69122827D01*
X122600000Y-69050000D01*
X122581409Y-69050000D01*
X122514370Y-69030315D01*
X122482144Y-69000313D01*
X122457546Y-68967454D01*
X122366457Y-68899265D01*
X122324588Y-68843333D01*
X122319604Y-68773641D01*
X122353089Y-68712318D01*
X122366452Y-68700738D01*
X122457546Y-68632546D01*
X122482143Y-68599687D01*
X122538076Y-68557818D01*
X122581409Y-68550000D01*
X122600000Y-68550000D01*
X122600000Y-68477172D01*
X122599999Y-68477160D01*
X122593380Y-68415604D01*
X122593380Y-68389090D01*
X122594090Y-68382485D01*
X122594091Y-68382483D01*
X122600500Y-68322873D01*
X122600499Y-67677128D01*
X122594091Y-67617517D01*
X122594089Y-67617513D01*
X122593632Y-67613255D01*
X122593632Y-67586745D01*
X122594089Y-67582486D01*
X122594091Y-67582483D01*
X122600500Y-67522873D01*
X122600499Y-67174498D01*
X122620183Y-67107460D01*
X122672987Y-67061705D01*
X122724499Y-67050499D01*
X123072871Y-67050499D01*
X123072872Y-67050499D01*
X123132483Y-67044091D01*
X123132486Y-67044089D01*
X123136744Y-67043632D01*
X123163254Y-67043632D01*
X123167514Y-67044089D01*
G37*
%TD.AperFunction*%
%TA.AperFunction,Conductor*%
G36*
X119956301Y-68522147D02*
G01*
X119999640Y-68550000D01*
X120018591Y-68550000D01*
X120085630Y-68569685D01*
X120117855Y-68599686D01*
X120142454Y-68632546D01*
X120142455Y-68632546D01*
X120142456Y-68632548D01*
X120233540Y-68700734D01*
X120275411Y-68756668D01*
X120280395Y-68826359D01*
X120246909Y-68887682D01*
X120233540Y-68899266D01*
X120135355Y-68972768D01*
X120133560Y-68970370D01*
X120085404Y-68996666D01*
X120059046Y-68999500D01*
X120014888Y-68999500D01*
X120014872Y-68999499D01*
X120007276Y-68999499D01*
X119891323Y-68999499D01*
X119824284Y-68979814D01*
X119786330Y-68941472D01*
X119754072Y-68890134D01*
X119707617Y-68843679D01*
X119674132Y-68782356D01*
X119679116Y-68712664D01*
X119707617Y-68668317D01*
X119825286Y-68550648D01*
X119886609Y-68517163D01*
X119956301Y-68522147D01*
G37*
%TD.AperFunction*%
%TA.AperFunction,Conductor*%
G36*
X118057370Y-56616657D02*
G01*
X118025000Y-56737465D01*
X118025000Y-56862535D01*
X118057370Y-56983343D01*
X118095854Y-57050000D01*
X116404146Y-57050000D01*
X116442630Y-56983343D01*
X116475000Y-56862535D01*
X116475000Y-56737465D01*
X116442630Y-56616657D01*
X116404146Y-56550000D01*
X118095854Y-56550000D01*
X118057370Y-56616657D01*
G37*
%TD.AperFunction*%
%TA.AperFunction,Conductor*%
G36*
X149442539Y-52120185D02*
G01*
X149488294Y-52172989D01*
X149499500Y-52224500D01*
X149499500Y-86175500D01*
X149479815Y-86242539D01*
X149427011Y-86288294D01*
X149375500Y-86299500D01*
X95624500Y-86299500D01*
X95557461Y-86279815D01*
X95511706Y-86227011D01*
X95500500Y-86175500D01*
X95500500Y-84097648D01*
X96899500Y-84097648D01*
X96899500Y-84302351D01*
X96931522Y-84504534D01*
X96994781Y-84699223D01*
X97087715Y-84881613D01*
X97208028Y-85047213D01*
X97352786Y-85191971D01*
X97507749Y-85304556D01*
X97518390Y-85312287D01*
X97634607Y-85371503D01*
X97700776Y-85405218D01*
X97700778Y-85405218D01*
X97700781Y-85405220D01*
X97805137Y-85439127D01*
X97895465Y-85468477D01*
X97996557Y-85484488D01*
X98097648Y-85500500D01*
X98097649Y-85500500D01*
X98302351Y-85500500D01*
X98302352Y-85500500D01*
X98504534Y-85468477D01*
X98699219Y-85405220D01*
X98881610Y-85312287D01*
X98974590Y-85244732D01*
X99047213Y-85191971D01*
X99047215Y-85191968D01*
X99047219Y-85191966D01*
X99191966Y-85047219D01*
X99191968Y-85047215D01*
X99191971Y-85047213D01*
X99244732Y-84974590D01*
X99312287Y-84881610D01*
X99405220Y-84699219D01*
X99468477Y-84504534D01*
X99500500Y-84302352D01*
X99500500Y-84097648D01*
X99469568Y-83902352D01*
X99468477Y-83895465D01*
X99405218Y-83700776D01*
X99403624Y-83697648D01*
X145299500Y-83697648D01*
X145299500Y-83902351D01*
X145331522Y-84104534D01*
X145394781Y-84299223D01*
X145487715Y-84481613D01*
X145608028Y-84647213D01*
X145752786Y-84791971D01*
X145907749Y-84904556D01*
X145918390Y-84912287D01*
X146034607Y-84971503D01*
X146100776Y-85005218D01*
X146100778Y-85005218D01*
X146100781Y-85005220D01*
X146205137Y-85039127D01*
X146295465Y-85068477D01*
X146396557Y-85084488D01*
X146497648Y-85100500D01*
X146497649Y-85100500D01*
X146702351Y-85100500D01*
X146702352Y-85100500D01*
X146904534Y-85068477D01*
X147099219Y-85005220D01*
X147281610Y-84912287D01*
X147374590Y-84844732D01*
X147447213Y-84791971D01*
X147447215Y-84791968D01*
X147447219Y-84791966D01*
X147591966Y-84647219D01*
X147591968Y-84647215D01*
X147591971Y-84647213D01*
X147644732Y-84574590D01*
X147712287Y-84481610D01*
X147805220Y-84299219D01*
X147868477Y-84104534D01*
X147900500Y-83902352D01*
X147900500Y-83697648D01*
X147868477Y-83495466D01*
X147805220Y-83300781D01*
X147805218Y-83300778D01*
X147805218Y-83300776D01*
X147757960Y-83208028D01*
X147712287Y-83118390D01*
X147704556Y-83107749D01*
X147591971Y-82952786D01*
X147447213Y-82808028D01*
X147281613Y-82687715D01*
X147281612Y-82687714D01*
X147281610Y-82687713D01*
X147224653Y-82658691D01*
X147099223Y-82594781D01*
X146904534Y-82531522D01*
X146729995Y-82503878D01*
X146702352Y-82499500D01*
X146497648Y-82499500D01*
X146473329Y-82503351D01*
X146295465Y-82531522D01*
X146100776Y-82594781D01*
X145918386Y-82687715D01*
X145752786Y-82808028D01*
X145608028Y-82952786D01*
X145487715Y-83118386D01*
X145394781Y-83300776D01*
X145331522Y-83495465D01*
X145299500Y-83697648D01*
X99403624Y-83697648D01*
X99371503Y-83634607D01*
X99312287Y-83518390D01*
X99295631Y-83495465D01*
X99191971Y-83352786D01*
X99047213Y-83208028D01*
X98881613Y-83087715D01*
X98881612Y-83087714D01*
X98881610Y-83087713D01*
X98824653Y-83058691D01*
X98699223Y-82994781D01*
X98504534Y-82931522D01*
X98329995Y-82903878D01*
X98302352Y-82899500D01*
X98097648Y-82899500D01*
X98073329Y-82903351D01*
X97895465Y-82931522D01*
X97700776Y-82994781D01*
X97518386Y-83087715D01*
X97352786Y-83208028D01*
X97208028Y-83352786D01*
X97087715Y-83518386D01*
X96994781Y-83700776D01*
X96931522Y-83895465D01*
X96899500Y-84097648D01*
X95500500Y-84097648D01*
X95500500Y-80347844D01*
X120000000Y-80347844D01*
X120006401Y-80407372D01*
X120006403Y-80407379D01*
X120056645Y-80542086D01*
X120056649Y-80542093D01*
X120142809Y-80657187D01*
X120142812Y-80657190D01*
X120257906Y-80743350D01*
X120257913Y-80743354D01*
X120392620Y-80793596D01*
X120392627Y-80793598D01*
X120452155Y-80799999D01*
X120452172Y-80800000D01*
X121500000Y-80800000D01*
X122000000Y-80800000D01*
X123047828Y-80800000D01*
X123047844Y-80799999D01*
X123107372Y-80793598D01*
X123107379Y-80793596D01*
X123242086Y-80743354D01*
X123242093Y-80743350D01*
X123357186Y-80657191D01*
X123364977Y-80646783D01*
X123420908Y-80604909D01*
X123490599Y-80599920D01*
X123551924Y-80633402D01*
X123598338Y-80679816D01*
X123751078Y-80775789D01*
X123921345Y-80835368D01*
X123921350Y-80835369D01*
X124100596Y-80855565D01*
X124100600Y-80855565D01*
X124100604Y-80855565D01*
X124279849Y-80835369D01*
X124279852Y-80835368D01*
X124279855Y-80835368D01*
X124450122Y-80775789D01*
X124602862Y-80679816D01*
X124602867Y-80679810D01*
X124605697Y-80677555D01*
X124607875Y-80676665D01*
X124608758Y-80676111D01*
X124608855Y-80676265D01*
X124670383Y-80651145D01*
X124683012Y-80650500D01*
X126909750Y-80650500D01*
X126976789Y-80670185D01*
X127022544Y-80722989D01*
X127025932Y-80731168D01*
X127056201Y-80812326D01*
X127056206Y-80812335D01*
X127142452Y-80927544D01*
X127142455Y-80927547D01*
X127257664Y-81013793D01*
X127257671Y-81013797D01*
X127392517Y-81064091D01*
X127392516Y-81064091D01*
X127399444Y-81064835D01*
X127452127Y-81070500D01*
X129147872Y-81070499D01*
X129207483Y-81064091D01*
X129342331Y-81013796D01*
X129457546Y-80927546D01*
X129543796Y-80812331D01*
X129594091Y-80677483D01*
X129600500Y-80617873D01*
X129600499Y-79522128D01*
X129594091Y-79462517D01*
X129579682Y-79423885D01*
X129543797Y-79327671D01*
X129543793Y-79327664D01*
X129457547Y-79212455D01*
X129457544Y-79212452D01*
X129342335Y-79126206D01*
X129342328Y-79126202D01*
X129207482Y-79075908D01*
X129207483Y-79075908D01*
X129147883Y-79069501D01*
X129147881Y-79069500D01*
X129147873Y-79069500D01*
X129147864Y-79069500D01*
X127452129Y-79069500D01*
X127452123Y-79069501D01*
X127392516Y-79075908D01*
X127257671Y-79126202D01*
X127257664Y-79126206D01*
X127142455Y-79212452D01*
X127142452Y-79212455D01*
X127056206Y-79327664D01*
X127056201Y-79327673D01*
X127040851Y-79368832D01*
X126998981Y-79424766D01*
X126933517Y-79449184D01*
X126924669Y-79449500D01*
X124683012Y-79449500D01*
X124615973Y-79429815D01*
X124605697Y-79422445D01*
X124602863Y-79420185D01*
X124602862Y-79420184D01*
X124521136Y-79368832D01*
X124450123Y-79324211D01*
X124279854Y-79264631D01*
X124279849Y-79264630D01*
X124100604Y-79244435D01*
X124100596Y-79244435D01*
X123921350Y-79264630D01*
X123921345Y-79264631D01*
X123751076Y-79324211D01*
X123689972Y-79362606D01*
X123622735Y-79381606D01*
X123555900Y-79361238D01*
X123510686Y-79307970D01*
X123500000Y-79257612D01*
X123500000Y-79050000D01*
X122000000Y-79050000D01*
X122000000Y-80800000D01*
X121500000Y-80800000D01*
X121500000Y-79050000D01*
X120000000Y-79050000D01*
X120000000Y-80347844D01*
X95500500Y-80347844D01*
X95500500Y-77252155D01*
X120000000Y-77252155D01*
X120000000Y-78550000D01*
X121500000Y-78550000D01*
X121500000Y-76800000D01*
X120452155Y-76800000D01*
X120392627Y-76806401D01*
X120392620Y-76806403D01*
X120257913Y-76856645D01*
X120257906Y-76856649D01*
X120142812Y-76942809D01*
X120142809Y-76942812D01*
X120056649Y-77057906D01*
X120056645Y-77057913D01*
X120006403Y-77192620D01*
X120006401Y-77192627D01*
X120000000Y-77252155D01*
X95500500Y-77252155D01*
X95500500Y-75182135D01*
X100294500Y-75182135D01*
X100294500Y-76577870D01*
X100294501Y-76577876D01*
X100300908Y-76637483D01*
X100351202Y-76772328D01*
X100351206Y-76772335D01*
X100437452Y-76887544D01*
X100437455Y-76887547D01*
X100552664Y-76973793D01*
X100552671Y-76973797D01*
X100687517Y-77024091D01*
X100687516Y-77024091D01*
X100694444Y-77024835D01*
X100747127Y-77030500D01*
X102742872Y-77030499D01*
X102802483Y-77024091D01*
X102937331Y-76973796D01*
X103052546Y-76887546D01*
X103138796Y-76772331D01*
X103189091Y-76637483D01*
X103195500Y-76577873D01*
X103195499Y-75767135D01*
X105559500Y-75767135D01*
X105559500Y-76562870D01*
X105559501Y-76562876D01*
X105565908Y-76622483D01*
X105616202Y-76757328D01*
X105616206Y-76757335D01*
X105702452Y-76872544D01*
X105702455Y-76872547D01*
X105817664Y-76958793D01*
X105817671Y-76958797D01*
X105952517Y-77009091D01*
X105952516Y-77009091D01*
X105959444Y-77009835D01*
X106012127Y-77015500D01*
X107307872Y-77015499D01*
X107367483Y-77009091D01*
X107502331Y-76958796D01*
X107617546Y-76872546D01*
X107703796Y-76757331D01*
X107754091Y-76622483D01*
X107756740Y-76597844D01*
X108900000Y-76597844D01*
X108906401Y-76657372D01*
X108906403Y-76657379D01*
X108956645Y-76792086D01*
X108956649Y-76792093D01*
X109042809Y-76907187D01*
X109042812Y-76907190D01*
X109157906Y-76993350D01*
X109157913Y-76993354D01*
X109292620Y-77043596D01*
X109292627Y-77043598D01*
X109352155Y-77049999D01*
X109352172Y-77050000D01*
X109750000Y-77050000D01*
X110250000Y-77050000D01*
X110647828Y-77050000D01*
X110647844Y-77049999D01*
X110707372Y-77043598D01*
X110707379Y-77043596D01*
X110842086Y-76993354D01*
X110842093Y-76993350D01*
X110957187Y-76907190D01*
X110957190Y-76907187D01*
X111043350Y-76792093D01*
X111043354Y-76792086D01*
X111093596Y-76657379D01*
X111093598Y-76657372D01*
X111099999Y-76597844D01*
X111100000Y-76597827D01*
X111100000Y-76522844D01*
X111610000Y-76522844D01*
X111616401Y-76582372D01*
X111616403Y-76582379D01*
X111666645Y-76717086D01*
X111666649Y-76717093D01*
X111752809Y-76832187D01*
X111752812Y-76832190D01*
X111867906Y-76918350D01*
X111867913Y-76918354D01*
X112002620Y-76968596D01*
X112002627Y-76968598D01*
X112062155Y-76974999D01*
X112062172Y-76975000D01*
X112460000Y-76975000D01*
X112960000Y-76975000D01*
X113357828Y-76975000D01*
X113357844Y-76974999D01*
X113417372Y-76968598D01*
X113417379Y-76968596D01*
X113552086Y-76918354D01*
X113552093Y-76918350D01*
X113667187Y-76832190D01*
X113667190Y-76832187D01*
X113753350Y-76717093D01*
X113753354Y-76717086D01*
X113803596Y-76582379D01*
X113803598Y-76582372D01*
X113805698Y-76562844D01*
X114160000Y-76562844D01*
X114166401Y-76622372D01*
X114166403Y-76622379D01*
X114216645Y-76757086D01*
X114216649Y-76757093D01*
X114302809Y-76872187D01*
X114302812Y-76872190D01*
X114417906Y-76958350D01*
X114417913Y-76958354D01*
X114552620Y-77008596D01*
X114552627Y-77008598D01*
X114612155Y-77014999D01*
X114612172Y-77015000D01*
X115010000Y-77015000D01*
X115510000Y-77015000D01*
X115907828Y-77015000D01*
X115907844Y-77014999D01*
X115967372Y-77008598D01*
X115967379Y-77008596D01*
X116102086Y-76958354D01*
X116102093Y-76958350D01*
X116217187Y-76872190D01*
X116217190Y-76872187D01*
X116303350Y-76757093D01*
X116303354Y-76757086D01*
X116353596Y-76622379D01*
X116353598Y-76622372D01*
X116359999Y-76562844D01*
X116360000Y-76562827D01*
X116360000Y-76415000D01*
X115510000Y-76415000D01*
X115510000Y-77015000D01*
X115010000Y-77015000D01*
X115010000Y-76415000D01*
X114160000Y-76415000D01*
X114160000Y-76562844D01*
X113805698Y-76562844D01*
X113809999Y-76522844D01*
X113810000Y-76522827D01*
X113810000Y-76375000D01*
X112960000Y-76375000D01*
X112960000Y-76975000D01*
X112460000Y-76975000D01*
X112460000Y-76375000D01*
X111610000Y-76375000D01*
X111610000Y-76522844D01*
X111100000Y-76522844D01*
X111100000Y-76450000D01*
X110250000Y-76450000D01*
X110250000Y-77050000D01*
X109750000Y-77050000D01*
X109750000Y-76450000D01*
X108900000Y-76450000D01*
X108900000Y-76597844D01*
X107756740Y-76597844D01*
X107760500Y-76562873D01*
X107760499Y-75802155D01*
X108900000Y-75802155D01*
X108900000Y-75950000D01*
X109750000Y-75950000D01*
X110250000Y-75950000D01*
X111100000Y-75950000D01*
X111100000Y-75802172D01*
X111099999Y-75802155D01*
X111093598Y-75742627D01*
X111093596Y-75742620D01*
X111087828Y-75727155D01*
X111610000Y-75727155D01*
X111610000Y-75875000D01*
X112460000Y-75875000D01*
X112960000Y-75875000D01*
X113810000Y-75875000D01*
X113810000Y-75767155D01*
X114160000Y-75767155D01*
X114160000Y-75915000D01*
X115010000Y-75915000D01*
X115510000Y-75915000D01*
X116360000Y-75915000D01*
X116360000Y-75767172D01*
X116359999Y-75767155D01*
X116353598Y-75707627D01*
X116353596Y-75707620D01*
X116303354Y-75572913D01*
X116303350Y-75572906D01*
X116217190Y-75457812D01*
X116217187Y-75457809D01*
X116102093Y-75371649D01*
X116102086Y-75371645D01*
X115967379Y-75321403D01*
X115967372Y-75321401D01*
X115907844Y-75315000D01*
X115510000Y-75315000D01*
X115510000Y-75915000D01*
X115010000Y-75915000D01*
X115010000Y-75315000D01*
X114612155Y-75315000D01*
X114552627Y-75321401D01*
X114552620Y-75321403D01*
X114417913Y-75371645D01*
X114417906Y-75371649D01*
X114302812Y-75457809D01*
X114302809Y-75457812D01*
X114216649Y-75572906D01*
X114216645Y-75572913D01*
X114166403Y-75707620D01*
X114166401Y-75707627D01*
X114160000Y-75767155D01*
X113810000Y-75767155D01*
X113810000Y-75727172D01*
X113809999Y-75727155D01*
X113803598Y-75667627D01*
X113803596Y-75667620D01*
X113753354Y-75532913D01*
X113753350Y-75532906D01*
X113667190Y-75417812D01*
X113667187Y-75417809D01*
X113552093Y-75331649D01*
X113552086Y-75331645D01*
X113417379Y-75281403D01*
X113417372Y-75281401D01*
X113357844Y-75275000D01*
X112960000Y-75275000D01*
X112960000Y-75875000D01*
X112460000Y-75875000D01*
X112460000Y-75275000D01*
X112062155Y-75275000D01*
X112002627Y-75281401D01*
X112002620Y-75281403D01*
X111867913Y-75331645D01*
X111867906Y-75331649D01*
X111752812Y-75417809D01*
X111752809Y-75417812D01*
X111666649Y-75532906D01*
X111666645Y-75532913D01*
X111616403Y-75667620D01*
X111616401Y-75667627D01*
X111610000Y-75727155D01*
X111087828Y-75727155D01*
X111043354Y-75607913D01*
X111043350Y-75607906D01*
X110957190Y-75492812D01*
X110957187Y-75492809D01*
X110842093Y-75406649D01*
X110842086Y-75406645D01*
X110707379Y-75356403D01*
X110707372Y-75356401D01*
X110647844Y-75350000D01*
X110250000Y-75350000D01*
X110250000Y-75950000D01*
X109750000Y-75950000D01*
X109750000Y-75350000D01*
X109352155Y-75350000D01*
X109292627Y-75356401D01*
X109292620Y-75356403D01*
X109157913Y-75406645D01*
X109157906Y-75406649D01*
X109042812Y-75492809D01*
X109042809Y-75492812D01*
X108956649Y-75607906D01*
X108956645Y-75607913D01*
X108906403Y-75742620D01*
X108906401Y-75742627D01*
X108900000Y-75802155D01*
X107760499Y-75802155D01*
X107760499Y-75767128D01*
X107754091Y-75707517D01*
X107739210Y-75667620D01*
X107703797Y-75572671D01*
X107703793Y-75572664D01*
X107617547Y-75457455D01*
X107617544Y-75457452D01*
X107502335Y-75371206D01*
X107502328Y-75371202D01*
X107367482Y-75320908D01*
X107367483Y-75320908D01*
X107307883Y-75314501D01*
X107307881Y-75314500D01*
X107307873Y-75314500D01*
X107307864Y-75314500D01*
X106012129Y-75314500D01*
X106012123Y-75314501D01*
X105952516Y-75320908D01*
X105817671Y-75371202D01*
X105817664Y-75371206D01*
X105702455Y-75457452D01*
X105702452Y-75457455D01*
X105616206Y-75572664D01*
X105616202Y-75572671D01*
X105565908Y-75707517D01*
X105562134Y-75742627D01*
X105559501Y-75767123D01*
X105559500Y-75767135D01*
X103195499Y-75767135D01*
X103195499Y-75182128D01*
X103189091Y-75122517D01*
X103185510Y-75112917D01*
X103138797Y-74987671D01*
X103138793Y-74987664D01*
X103052547Y-74872455D01*
X103052544Y-74872452D01*
X102937335Y-74786206D01*
X102937328Y-74786202D01*
X102802482Y-74735908D01*
X102802483Y-74735908D01*
X102742883Y-74729501D01*
X102742881Y-74729500D01*
X102742873Y-74729500D01*
X102742865Y-74729500D01*
X102269000Y-74729500D01*
X102201961Y-74709815D01*
X102156206Y-74657011D01*
X102145000Y-74605500D01*
X102145000Y-72130000D01*
X100795000Y-72130000D01*
X100795000Y-74612969D01*
X100775315Y-74680008D01*
X100722511Y-74725763D01*
X100694883Y-74733345D01*
X100695068Y-74734124D01*
X100687520Y-74735907D01*
X100552671Y-74786202D01*
X100552664Y-74786206D01*
X100437455Y-74872452D01*
X100437452Y-74872455D01*
X100351206Y-74987664D01*
X100351202Y-74987671D01*
X100300908Y-75122517D01*
X100294501Y-75182116D01*
X100294501Y-75182123D01*
X100294500Y-75182135D01*
X95500500Y-75182135D01*
X95500500Y-61832135D01*
X100294500Y-61832135D01*
X100294500Y-62927870D01*
X100294501Y-62927876D01*
X100300908Y-62987483D01*
X100351202Y-63122328D01*
X100351206Y-63122335D01*
X100437452Y-63237544D01*
X100437455Y-63237547D01*
X100552664Y-63323793D01*
X100552671Y-63323797D01*
X100687517Y-63374091D01*
X100687516Y-63374091D01*
X100694444Y-63374835D01*
X100747127Y-63380500D01*
X102821000Y-63380499D01*
X102888039Y-63400184D01*
X102933794Y-63452987D01*
X102945000Y-63504499D01*
X102945000Y-63780000D01*
X110121000Y-63780000D01*
X110188039Y-63799685D01*
X110233794Y-63852489D01*
X110245000Y-63904000D01*
X110245000Y-72480000D01*
X111845000Y-72480000D01*
X111845000Y-63780000D01*
X110669000Y-63780000D01*
X110601961Y-63760315D01*
X110556206Y-63707511D01*
X110545000Y-63656000D01*
X110545000Y-63080000D01*
X107367190Y-63080000D01*
X107300151Y-63060315D01*
X107254396Y-63007511D01*
X107243901Y-62942744D01*
X107245042Y-62932129D01*
X107245500Y-62927873D01*
X107245499Y-61980000D01*
X108345000Y-61980000D01*
X108345000Y-62730000D01*
X111320501Y-62730000D01*
X111387540Y-62749685D01*
X111433295Y-62802489D01*
X111444501Y-62854000D01*
X111444501Y-62927876D01*
X111450908Y-62987483D01*
X111501202Y-63122328D01*
X111501206Y-63122335D01*
X111587452Y-63237544D01*
X111587455Y-63237547D01*
X111702664Y-63323793D01*
X111702671Y-63323797D01*
X111837517Y-63374091D01*
X111837516Y-63374091D01*
X111844444Y-63374835D01*
X111897127Y-63380500D01*
X113192872Y-63380499D01*
X113252483Y-63374091D01*
X113387331Y-63323796D01*
X113502546Y-63237546D01*
X113588796Y-63122331D01*
X113639091Y-62987483D01*
X113645500Y-62927873D01*
X113645500Y-62854000D01*
X113665185Y-62786961D01*
X113717989Y-62741206D01*
X113769500Y-62730000D01*
X115628185Y-62730000D01*
X115695224Y-62749685D01*
X115740979Y-62802489D01*
X115751475Y-62867254D01*
X115750909Y-62872516D01*
X115750909Y-62872517D01*
X115744500Y-62932127D01*
X115744500Y-62932128D01*
X115744500Y-62932132D01*
X115744500Y-63727870D01*
X115744501Y-63727879D01*
X115751367Y-63791751D01*
X115751367Y-63818257D01*
X115750909Y-63822516D01*
X115750909Y-63822517D01*
X115744500Y-63882127D01*
X115744500Y-63882128D01*
X115744500Y-63882132D01*
X115744500Y-64463238D01*
X115724815Y-64530277D01*
X115672011Y-64576032D01*
X115634384Y-64586458D01*
X115561849Y-64594630D01*
X115561845Y-64594631D01*
X115391576Y-64654211D01*
X115238837Y-64750184D01*
X115111284Y-64877737D01*
X115015311Y-65030476D01*
X114955731Y-65200745D01*
X114955730Y-65200750D01*
X114935535Y-65379996D01*
X114935535Y-65380003D01*
X114955730Y-65559249D01*
X114955731Y-65559254D01*
X115015311Y-65729523D01*
X115045686Y-65777864D01*
X115111284Y-65882262D01*
X115238838Y-66009816D01*
X115329180Y-66066582D01*
X115379673Y-66098309D01*
X115391578Y-66105789D01*
X115501579Y-66144280D01*
X115561845Y-66165368D01*
X115561850Y-66165369D01*
X115652301Y-66175560D01*
X115716715Y-66202626D01*
X115726099Y-66211099D01*
X115745000Y-66230000D01*
X116185833Y-66230000D01*
X116193811Y-66230427D01*
X116193817Y-66230322D01*
X116197102Y-66230497D01*
X116197127Y-66230500D01*
X117492872Y-66230499D01*
X117492872Y-66230498D01*
X117496196Y-66230321D01*
X117496201Y-66230426D01*
X117504163Y-66230000D01*
X117945000Y-66230000D01*
X117945000Y-66082172D01*
X117944999Y-66082155D01*
X117938598Y-66022627D01*
X117920479Y-65974048D01*
X117915495Y-65904356D01*
X117920476Y-65887391D01*
X117939091Y-65837483D01*
X117945500Y-65777873D01*
X117945499Y-64982128D01*
X117939091Y-64922517D01*
X117932125Y-64903840D01*
X117920747Y-64873334D01*
X117915762Y-64803643D01*
X117920747Y-64786665D01*
X117939089Y-64737488D01*
X117939091Y-64737483D01*
X117945500Y-64677873D01*
X117945499Y-63882128D01*
X117939091Y-63822517D01*
X117939089Y-63822513D01*
X117938632Y-63818255D01*
X117938633Y-63791745D01*
X117942844Y-63752573D01*
X117945500Y-63727873D01*
X117945499Y-62932128D01*
X117939091Y-62872517D01*
X117912972Y-62802489D01*
X117888797Y-62737671D01*
X117888793Y-62737664D01*
X117802547Y-62622455D01*
X117802544Y-62622452D01*
X117687335Y-62536206D01*
X117687328Y-62536202D01*
X117552482Y-62485908D01*
X117552483Y-62485908D01*
X117492883Y-62479501D01*
X117492881Y-62479500D01*
X117492873Y-62479500D01*
X117492865Y-62479500D01*
X116519000Y-62479500D01*
X116451961Y-62459815D01*
X116406206Y-62407011D01*
X116395000Y-62355500D01*
X116395000Y-61980000D01*
X113769499Y-61980000D01*
X113702460Y-61960315D01*
X113656705Y-61907511D01*
X113645499Y-61856000D01*
X113645499Y-61832129D01*
X113645498Y-61832123D01*
X113645497Y-61832116D01*
X113639091Y-61772517D01*
X113590151Y-61641303D01*
X113588797Y-61637671D01*
X113588793Y-61637664D01*
X113502547Y-61522455D01*
X113502544Y-61522452D01*
X113387335Y-61436206D01*
X113387328Y-61436202D01*
X113252482Y-61385908D01*
X113252483Y-61385908D01*
X113192883Y-61379501D01*
X113192881Y-61379500D01*
X113192873Y-61379500D01*
X113192864Y-61379500D01*
X111897129Y-61379500D01*
X111897123Y-61379501D01*
X111837516Y-61385908D01*
X111702671Y-61436202D01*
X111702664Y-61436206D01*
X111587455Y-61522452D01*
X111587452Y-61522455D01*
X111501206Y-61637664D01*
X111501202Y-61637671D01*
X111450908Y-61772517D01*
X111446266Y-61815701D01*
X111444501Y-61832123D01*
X111444500Y-61832135D01*
X111444500Y-61856000D01*
X111424815Y-61923039D01*
X111372011Y-61968794D01*
X111320500Y-61980000D01*
X108345000Y-61980000D01*
X107245499Y-61980000D01*
X107245499Y-61832128D01*
X107239091Y-61772517D01*
X107190151Y-61641303D01*
X107188797Y-61637671D01*
X107188793Y-61637664D01*
X107102547Y-61522455D01*
X107102544Y-61522452D01*
X106987335Y-61436206D01*
X106987328Y-61436202D01*
X106852482Y-61385908D01*
X106852483Y-61385908D01*
X106792883Y-61379501D01*
X106792881Y-61379500D01*
X106792873Y-61379500D01*
X106792864Y-61379500D01*
X105897129Y-61379500D01*
X105897123Y-61379501D01*
X105837516Y-61385908D01*
X105702671Y-61436202D01*
X105702664Y-61436206D01*
X105587455Y-61522452D01*
X105587452Y-61522455D01*
X105501206Y-61637664D01*
X105501202Y-61637671D01*
X105450908Y-61772517D01*
X105446266Y-61815701D01*
X105444501Y-61832123D01*
X105444500Y-61832135D01*
X105444500Y-62927870D01*
X105444501Y-62927874D01*
X105446100Y-62942746D01*
X105433694Y-63011505D01*
X105386083Y-63062642D01*
X105322810Y-63080000D01*
X104217190Y-63080000D01*
X104150151Y-63060315D01*
X104104396Y-63007511D01*
X104093901Y-62942744D01*
X104095042Y-62932129D01*
X104095500Y-62927873D01*
X104095499Y-61832128D01*
X104089091Y-61772517D01*
X104040151Y-61641303D01*
X104038797Y-61637671D01*
X104038793Y-61637664D01*
X103952547Y-61522455D01*
X103952544Y-61522452D01*
X103837335Y-61436206D01*
X103837328Y-61436202D01*
X103702482Y-61385908D01*
X103702483Y-61385908D01*
X103642883Y-61379501D01*
X103642881Y-61379500D01*
X103642873Y-61379500D01*
X103642864Y-61379500D01*
X100747129Y-61379500D01*
X100747123Y-61379501D01*
X100687516Y-61385908D01*
X100552671Y-61436202D01*
X100552664Y-61436206D01*
X100437455Y-61522452D01*
X100437452Y-61522455D01*
X100351206Y-61637664D01*
X100351202Y-61637671D01*
X100300908Y-61772517D01*
X100296266Y-61815701D01*
X100294501Y-61832123D01*
X100294500Y-61832135D01*
X95500500Y-61832135D01*
X95500500Y-55697648D01*
X97099500Y-55697648D01*
X97099500Y-55902351D01*
X97131522Y-56104534D01*
X97194781Y-56299223D01*
X97287715Y-56481613D01*
X97408028Y-56647213D01*
X97552786Y-56791971D01*
X97707749Y-56904556D01*
X97718390Y-56912287D01*
X97834607Y-56971503D01*
X97900776Y-57005218D01*
X97900778Y-57005218D01*
X97900781Y-57005220D01*
X97981004Y-57031286D01*
X98095465Y-57068477D01*
X98196557Y-57084488D01*
X98297648Y-57100500D01*
X98297649Y-57100500D01*
X98502351Y-57100500D01*
X98502352Y-57100500D01*
X98704534Y-57068477D01*
X98899219Y-57005220D01*
X99081610Y-56912287D01*
X99174590Y-56844732D01*
X99247213Y-56791971D01*
X99247215Y-56791968D01*
X99247219Y-56791966D01*
X99391966Y-56647219D01*
X99391968Y-56647215D01*
X99391971Y-56647213D01*
X99492864Y-56508343D01*
X99512287Y-56481610D01*
X99605220Y-56299219D01*
X99668477Y-56104534D01*
X99681072Y-56025013D01*
X114650000Y-56025013D01*
X114650000Y-56550000D01*
X115595854Y-56550000D01*
X115557370Y-56616657D01*
X115525000Y-56737465D01*
X115525000Y-56862535D01*
X115557370Y-56983343D01*
X115595854Y-57050000D01*
X114650001Y-57050000D01*
X114650001Y-57574986D01*
X114660494Y-57677697D01*
X114715641Y-57844119D01*
X114715643Y-57844124D01*
X114807684Y-57993345D01*
X114931654Y-58117315D01*
X115080875Y-58209356D01*
X115080880Y-58209358D01*
X115247302Y-58264505D01*
X115247309Y-58264506D01*
X115350019Y-58274999D01*
X115749999Y-58274999D01*
X115750000Y-58274998D01*
X115750000Y-57204145D01*
X115816657Y-57242630D01*
X115937465Y-57275000D01*
X116062535Y-57275000D01*
X116183343Y-57242630D01*
X116250000Y-57204145D01*
X116250000Y-58274999D01*
X116649972Y-58274999D01*
X116649986Y-58274998D01*
X116752697Y-58264505D01*
X116919119Y-58209358D01*
X116919124Y-58209356D01*
X117068345Y-58117315D01*
X117192317Y-57993343D01*
X117288085Y-57838078D01*
X117340033Y-57791353D01*
X117408995Y-57780130D01*
X117473077Y-57807973D01*
X117481305Y-57815493D01*
X117620535Y-57954723D01*
X117620540Y-57954727D01*
X117792442Y-58079620D01*
X117981782Y-58176095D01*
X118183871Y-58241757D01*
X118250000Y-58252231D01*
X118250000Y-57204145D01*
X118316657Y-57242630D01*
X118437465Y-57275000D01*
X118562535Y-57275000D01*
X118683343Y-57242630D01*
X118750000Y-57204145D01*
X118750000Y-58252230D01*
X118816126Y-58241757D01*
X118816129Y-58241757D01*
X119018217Y-58176095D01*
X119207557Y-58079620D01*
X119379459Y-57954727D01*
X119379464Y-57954723D01*
X119529721Y-57804466D01*
X119649371Y-57639781D01*
X119704701Y-57597115D01*
X119774314Y-57591136D01*
X119836110Y-57623741D01*
X119850008Y-57639781D01*
X119969890Y-57804785D01*
X119969894Y-57804790D01*
X120120213Y-57955109D01*
X120292184Y-58080051D01*
X120292184Y-58080052D01*
X120331793Y-58100233D01*
X120382590Y-58148206D01*
X120399500Y-58210718D01*
X120399500Y-60966899D01*
X120379815Y-61033938D01*
X120373482Y-61042895D01*
X120369422Y-61048129D01*
X120285755Y-61189603D01*
X120285754Y-61189606D01*
X120239902Y-61347426D01*
X120239901Y-61347432D01*
X120237000Y-61384298D01*
X120237000Y-61815701D01*
X120239901Y-61852567D01*
X120239902Y-61852573D01*
X120285754Y-62010393D01*
X120285756Y-62010399D01*
X120286926Y-62012377D01*
X120287369Y-62014126D01*
X120288853Y-62017554D01*
X120288299Y-62017793D01*
X120304103Y-62080102D01*
X120288749Y-62132395D01*
X120289317Y-62132641D01*
X120287327Y-62137239D01*
X120286928Y-62138599D01*
X120286222Y-62139791D01*
X120286216Y-62139806D01*
X120240400Y-62297505D01*
X120240399Y-62297511D01*
X120240204Y-62299998D01*
X120240205Y-62300000D01*
X120505685Y-62300000D01*
X120568806Y-62317268D01*
X120627102Y-62351744D01*
X120640030Y-62355500D01*
X120784926Y-62397597D01*
X120784929Y-62397597D01*
X120784931Y-62397598D01*
X120821806Y-62400500D01*
X120821814Y-62400500D01*
X121276000Y-62400500D01*
X121343039Y-62420185D01*
X121388794Y-62472989D01*
X121400000Y-62524500D01*
X121400000Y-62575500D01*
X121380315Y-62642539D01*
X121327511Y-62688294D01*
X121276000Y-62699500D01*
X120821798Y-62699500D01*
X120784932Y-62702401D01*
X120784926Y-62702402D01*
X120627106Y-62748254D01*
X120627103Y-62748255D01*
X120568806Y-62782732D01*
X120505685Y-62800000D01*
X120240205Y-62800000D01*
X120240204Y-62800001D01*
X120240399Y-62802488D01*
X120240400Y-62802494D01*
X120286216Y-62960193D01*
X120286220Y-62960203D01*
X120286927Y-62961398D01*
X120287195Y-62962454D01*
X120289316Y-62967356D01*
X120288524Y-62967698D01*
X120304103Y-63029123D01*
X120288493Y-63082284D01*
X120288855Y-63082441D01*
X120287587Y-63085369D01*
X120286927Y-63087620D01*
X120285759Y-63089594D01*
X120285754Y-63089607D01*
X120239902Y-63247426D01*
X120239901Y-63247432D01*
X120237000Y-63284298D01*
X120237000Y-63715701D01*
X120239901Y-63752567D01*
X120239902Y-63752573D01*
X120276636Y-63879010D01*
X120276437Y-63948880D01*
X120274602Y-63954559D01*
X120214632Y-64125942D01*
X120214630Y-64125950D01*
X120194435Y-64305196D01*
X120194435Y-64305203D01*
X120214630Y-64484449D01*
X120214631Y-64484454D01*
X120274211Y-64654723D01*
X120370184Y-64807462D01*
X120466562Y-64903840D01*
X120500047Y-64965163D01*
X120495063Y-65034855D01*
X120466562Y-65079202D01*
X119289681Y-66256082D01*
X119289677Y-66256087D01*
X119274225Y-66282853D01*
X119262902Y-66302466D01*
X119210623Y-66393015D01*
X119169699Y-66545743D01*
X119169699Y-66545745D01*
X119169699Y-66713846D01*
X119169700Y-66713859D01*
X119169700Y-67456402D01*
X119150015Y-67523441D01*
X119133381Y-67544084D01*
X118970166Y-67707298D01*
X118908843Y-67740782D01*
X118839151Y-67735798D01*
X118783218Y-67693926D01*
X118758801Y-67628462D01*
X118759264Y-67605740D01*
X118762165Y-67580000D01*
X118761702Y-67575893D01*
X118741969Y-67400750D01*
X118741968Y-67400745D01*
X118682388Y-67230476D01*
X118614848Y-67122987D01*
X118586416Y-67077738D01*
X118458862Y-66950184D01*
X118335156Y-66872454D01*
X118306123Y-66854211D01*
X118135854Y-66794631D01*
X118135850Y-66794630D01*
X118036719Y-66783461D01*
X117972305Y-66756394D01*
X117962922Y-66747922D01*
X117945000Y-66730000D01*
X117504167Y-66730000D01*
X117496188Y-66729572D01*
X117496183Y-66729678D01*
X117492879Y-66729500D01*
X117492873Y-66729500D01*
X117492866Y-66729500D01*
X116197129Y-66729500D01*
X116193805Y-66729679D01*
X116193799Y-66729573D01*
X116185837Y-66730000D01*
X115745000Y-66730000D01*
X115745000Y-66877844D01*
X115751401Y-66937372D01*
X115751403Y-66937383D01*
X115769519Y-66985953D01*
X115774503Y-67055644D01*
X115769520Y-67072616D01*
X115750908Y-67122517D01*
X115744501Y-67182116D01*
X115744500Y-67182135D01*
X115744500Y-67977870D01*
X115744501Y-67977876D01*
X115750908Y-68037482D01*
X115769253Y-68086666D01*
X115774237Y-68156358D01*
X115769253Y-68173331D01*
X115750909Y-68222513D01*
X115750909Y-68222515D01*
X115749279Y-68237671D01*
X115722538Y-68302221D01*
X115713671Y-68312091D01*
X115469217Y-68556546D01*
X115469214Y-68556548D01*
X115469215Y-68556549D01*
X115364478Y-68661286D01*
X115364475Y-68661290D01*
X115317940Y-68741893D01*
X115317940Y-68741894D01*
X115285423Y-68798214D01*
X115285423Y-68798215D01*
X115244499Y-68950943D01*
X115244499Y-68950945D01*
X115244499Y-69119046D01*
X115244500Y-69119059D01*
X115244500Y-74350943D01*
X115244500Y-74509057D01*
X115260687Y-74569465D01*
X115285423Y-74661783D01*
X115285426Y-74661790D01*
X115364475Y-74798709D01*
X115364478Y-74798713D01*
X115364480Y-74798716D01*
X115476284Y-74910520D01*
X115476286Y-74910521D01*
X115476290Y-74910524D01*
X115609911Y-74987669D01*
X115613216Y-74989577D01*
X115765943Y-75030500D01*
X117758331Y-75030500D01*
X117758347Y-75030501D01*
X117765943Y-75030501D01*
X117924054Y-75030501D01*
X117924057Y-75030501D01*
X118076785Y-74989577D01*
X118126904Y-74960639D01*
X118213716Y-74910520D01*
X118325520Y-74798716D01*
X118325520Y-74798714D01*
X118335728Y-74788507D01*
X118335730Y-74788504D01*
X119852046Y-73272187D01*
X119913367Y-73238704D01*
X119983059Y-73243688D01*
X120038992Y-73285560D01*
X120055905Y-73316532D01*
X120056200Y-73317325D01*
X120056206Y-73317335D01*
X120142452Y-73432544D01*
X120142455Y-73432547D01*
X120257664Y-73518793D01*
X120257671Y-73518797D01*
X120272187Y-73524211D01*
X120392517Y-73569091D01*
X120452127Y-73575500D01*
X120575500Y-73575499D01*
X120642539Y-73595183D01*
X120688294Y-73647987D01*
X120699500Y-73699499D01*
X120699500Y-74657530D01*
X120699499Y-74657548D01*
X120699499Y-74823254D01*
X120699498Y-74823254D01*
X120740423Y-74975986D01*
X120740424Y-74975987D01*
X120759789Y-75009528D01*
X120819481Y-75112917D01*
X120938349Y-75231785D01*
X120938355Y-75231790D01*
X122294884Y-76588319D01*
X122328369Y-76649642D01*
X122323385Y-76719334D01*
X122281513Y-76775267D01*
X122216049Y-76799684D01*
X122207203Y-76800000D01*
X122000000Y-76800000D01*
X122000000Y-78550000D01*
X123500000Y-78550000D01*
X123500000Y-78092798D01*
X123519685Y-78025759D01*
X123572489Y-77980004D01*
X123641647Y-77970060D01*
X123705203Y-77999085D01*
X123711681Y-78005117D01*
X123717084Y-78010520D01*
X123803895Y-78060639D01*
X123803897Y-78060641D01*
X123833728Y-78077864D01*
X123854015Y-78089577D01*
X124006743Y-78130500D01*
X126917209Y-78130500D01*
X126984248Y-78150185D01*
X127030003Y-78202989D01*
X127033391Y-78211167D01*
X127056202Y-78272328D01*
X127056206Y-78272335D01*
X127142452Y-78387544D01*
X127142455Y-78387547D01*
X127257664Y-78473793D01*
X127257671Y-78473797D01*
X127392517Y-78524091D01*
X127392516Y-78524091D01*
X127399444Y-78524835D01*
X127452127Y-78530500D01*
X129147872Y-78530499D01*
X129207483Y-78524091D01*
X129342331Y-78473796D01*
X129457546Y-78387546D01*
X129543796Y-78272331D01*
X129594091Y-78137483D01*
X129600500Y-78077873D01*
X129600500Y-77652135D01*
X130399500Y-77652135D01*
X130399500Y-78747870D01*
X130399501Y-78747876D01*
X130405908Y-78807483D01*
X130456202Y-78942328D01*
X130456206Y-78942335D01*
X130542452Y-79057544D01*
X130542455Y-79057547D01*
X130657664Y-79143793D01*
X130657671Y-79143797D01*
X130792517Y-79194091D01*
X130792516Y-79194091D01*
X130799444Y-79194835D01*
X130852127Y-79200500D01*
X131947872Y-79200499D01*
X132007483Y-79194091D01*
X132142331Y-79143796D01*
X132257546Y-79057546D01*
X132343796Y-78942331D01*
X132358036Y-78904152D01*
X133475001Y-78904152D01*
X133485056Y-79002583D01*
X133537906Y-79162072D01*
X133537908Y-79162077D01*
X133626114Y-79305080D01*
X133744919Y-79423885D01*
X133887922Y-79512091D01*
X133887927Y-79512093D01*
X134047416Y-79564942D01*
X134145856Y-79574999D01*
X134162500Y-79574998D01*
X134162500Y-78850000D01*
X133475001Y-78850000D01*
X133475001Y-78904152D01*
X132358036Y-78904152D01*
X132394091Y-78807483D01*
X132400500Y-78747873D01*
X132400500Y-78295849D01*
X133475000Y-78295849D01*
X133475000Y-78350000D01*
X134162500Y-78350000D01*
X134162500Y-77624999D01*
X134145856Y-77625000D01*
X134047415Y-77635057D01*
X133887927Y-77687906D01*
X133887922Y-77687908D01*
X133744919Y-77776114D01*
X133626114Y-77894919D01*
X133537908Y-78037922D01*
X133537906Y-78037927D01*
X133485057Y-78197416D01*
X133475000Y-78295849D01*
X132400500Y-78295849D01*
X132400499Y-77652128D01*
X132394091Y-77592517D01*
X132393898Y-77592000D01*
X132343797Y-77457671D01*
X132343793Y-77457664D01*
X132257547Y-77342455D01*
X132257544Y-77342452D01*
X132142335Y-77256206D01*
X132142328Y-77256202D01*
X132007482Y-77205908D01*
X132007483Y-77205908D01*
X131947883Y-77199501D01*
X131947881Y-77199500D01*
X131947873Y-77199500D01*
X131947864Y-77199500D01*
X130852129Y-77199500D01*
X130852123Y-77199501D01*
X130792516Y-77205908D01*
X130657671Y-77256202D01*
X130657664Y-77256206D01*
X130542455Y-77342452D01*
X130542452Y-77342455D01*
X130456206Y-77457664D01*
X130456202Y-77457671D01*
X130405908Y-77592517D01*
X130401412Y-77634340D01*
X130399501Y-77652123D01*
X130399500Y-77652135D01*
X129600500Y-77652135D01*
X129600499Y-76982128D01*
X129594808Y-76929184D01*
X129594091Y-76922516D01*
X129547699Y-76798133D01*
X129542715Y-76728441D01*
X129576200Y-76667118D01*
X129637523Y-76633634D01*
X129663881Y-76630800D01*
X133848780Y-76630800D01*
X133915819Y-76650485D01*
X133936461Y-76667119D01*
X133939811Y-76670469D01*
X133939813Y-76670470D01*
X133939815Y-76670472D01*
X134085394Y-76758478D01*
X134247804Y-76809086D01*
X134318384Y-76815500D01*
X134318387Y-76815500D01*
X134831613Y-76815500D01*
X134831616Y-76815500D01*
X134902196Y-76809086D01*
X135064606Y-76758478D01*
X135210185Y-76670472D01*
X135312320Y-76568336D01*
X135373641Y-76534853D01*
X135443333Y-76539837D01*
X135487681Y-76568338D01*
X135588181Y-76668838D01*
X135621666Y-76730161D01*
X135624500Y-76756519D01*
X135624500Y-77544299D01*
X135604815Y-77611338D01*
X135552011Y-77657093D01*
X135539504Y-77662005D01*
X135462715Y-77687450D01*
X135462704Y-77687455D01*
X135319612Y-77775716D01*
X135319607Y-77775719D01*
X135287327Y-77808000D01*
X135226003Y-77841485D01*
X135156312Y-77836499D01*
X135111967Y-77808000D01*
X135080080Y-77776114D01*
X134937077Y-77687908D01*
X134937072Y-77687906D01*
X134777583Y-77635057D01*
X134679150Y-77625000D01*
X134662500Y-77625000D01*
X134662500Y-79574999D01*
X134679136Y-79574999D01*
X134679152Y-79574998D01*
X134777583Y-79564943D01*
X134937072Y-79512093D01*
X134937077Y-79512091D01*
X135080080Y-79423885D01*
X135111966Y-79392000D01*
X135173289Y-79358515D01*
X135242981Y-79363499D01*
X135287328Y-79392000D01*
X135319608Y-79424280D01*
X135319612Y-79424283D01*
X135462704Y-79512544D01*
X135462707Y-79512545D01*
X135462713Y-79512549D01*
X135622315Y-79565436D01*
X135720826Y-79575500D01*
X135720831Y-79575500D01*
X136254169Y-79575500D01*
X136254174Y-79575500D01*
X136352685Y-79565436D01*
X136512287Y-79512549D01*
X136655391Y-79424281D01*
X136774281Y-79305391D01*
X136862549Y-79162287D01*
X136915436Y-79002685D01*
X136925500Y-78904174D01*
X136925500Y-78295826D01*
X136915436Y-78197315D01*
X136862549Y-78037713D01*
X136853010Y-78022248D01*
X136843961Y-78007576D01*
X136825500Y-77942480D01*
X136825500Y-77104152D01*
X138062501Y-77104152D01*
X138072556Y-77202583D01*
X138125406Y-77362072D01*
X138125408Y-77362077D01*
X138213614Y-77505080D01*
X138332419Y-77623885D01*
X138475422Y-77712091D01*
X138475427Y-77712093D01*
X138634916Y-77764942D01*
X138733356Y-77774999D01*
X138750000Y-77774998D01*
X138750000Y-77050000D01*
X138062501Y-77050000D01*
X138062501Y-77104152D01*
X136825500Y-77104152D01*
X136825500Y-76756519D01*
X136845185Y-76689480D01*
X136861814Y-76668842D01*
X136980472Y-76550185D01*
X137068478Y-76404606D01*
X137119086Y-76242196D01*
X137125500Y-76171616D01*
X137125500Y-75508384D01*
X137119086Y-75437804D01*
X137068478Y-75275394D01*
X136980472Y-75129815D01*
X136980470Y-75129813D01*
X136980469Y-75129811D01*
X136860188Y-75009530D01*
X136827180Y-74989576D01*
X136714606Y-74921522D01*
X136552196Y-74870914D01*
X136552194Y-74870913D01*
X136552192Y-74870913D01*
X136502778Y-74866423D01*
X136481616Y-74864500D01*
X136481613Y-74864500D01*
X136124500Y-74864500D01*
X136057461Y-74844815D01*
X136011706Y-74792011D01*
X136000500Y-74740500D01*
X136000500Y-74429500D01*
X136020185Y-74362461D01*
X136072989Y-74316706D01*
X136124500Y-74305500D01*
X136481613Y-74305500D01*
X136481616Y-74305500D01*
X136552196Y-74299086D01*
X136714606Y-74248478D01*
X136860185Y-74160472D01*
X136885530Y-74135126D01*
X136946851Y-74101642D01*
X137016543Y-74106626D01*
X137060892Y-74135127D01*
X138587332Y-75661567D01*
X138620817Y-75722890D01*
X138615833Y-75792582D01*
X138573961Y-75848515D01*
X138538657Y-75866953D01*
X138475430Y-75887905D01*
X138475422Y-75887908D01*
X138332419Y-75976114D01*
X138213614Y-76094919D01*
X138125408Y-76237922D01*
X138125406Y-76237927D01*
X138072557Y-76397416D01*
X138062500Y-76495849D01*
X138062500Y-76550000D01*
X138876000Y-76550000D01*
X138943039Y-76569685D01*
X138988794Y-76622489D01*
X139000000Y-76674000D01*
X139000000Y-76800000D01*
X139126000Y-76800000D01*
X139193039Y-76819685D01*
X139238794Y-76872489D01*
X139250000Y-76924000D01*
X139250000Y-77774999D01*
X139266636Y-77774999D01*
X139266652Y-77774998D01*
X139365083Y-77764943D01*
X139524572Y-77712093D01*
X139524577Y-77712091D01*
X139667580Y-77623885D01*
X139699466Y-77592000D01*
X139760789Y-77558515D01*
X139830481Y-77563499D01*
X139874828Y-77592000D01*
X139907108Y-77624280D01*
X139907112Y-77624283D01*
X140050204Y-77712544D01*
X140050207Y-77712545D01*
X140050213Y-77712549D01*
X140209815Y-77765436D01*
X140308326Y-77775500D01*
X140308331Y-77775500D01*
X140841669Y-77775500D01*
X140841674Y-77775500D01*
X140940185Y-77765436D01*
X141099787Y-77712549D01*
X141242891Y-77624281D01*
X141361781Y-77505391D01*
X141450049Y-77362287D01*
X141502936Y-77202685D01*
X141513000Y-77104174D01*
X141513000Y-76495826D01*
X141502936Y-76397315D01*
X141450049Y-76237713D01*
X141450045Y-76237707D01*
X141450044Y-76237704D01*
X141361783Y-76094612D01*
X141361780Y-76094608D01*
X141242891Y-75975719D01*
X141242887Y-75975716D01*
X141099795Y-75887455D01*
X141099789Y-75887452D01*
X141099787Y-75887451D01*
X140940185Y-75834564D01*
X140940183Y-75834563D01*
X140841681Y-75824500D01*
X140841674Y-75824500D01*
X140500097Y-75824500D01*
X140433058Y-75804815D01*
X140412416Y-75788181D01*
X137592590Y-72968355D01*
X137592588Y-72968352D01*
X137473717Y-72849481D01*
X137473709Y-72849475D01*
X137371702Y-72790582D01*
X137371701Y-72790581D01*
X137371701Y-72790582D01*
X137336785Y-72770423D01*
X137184057Y-72729499D01*
X137184054Y-72729499D01*
X137116715Y-72729499D01*
X137049676Y-72709814D01*
X137010599Y-72669650D01*
X136980471Y-72619814D01*
X136927189Y-72566532D01*
X136865124Y-72504467D01*
X136831641Y-72443147D01*
X136836625Y-72373455D01*
X136865124Y-72329109D01*
X139157416Y-70036819D01*
X139218739Y-70003334D01*
X139245097Y-70000500D01*
X140014695Y-70000500D01*
X140081734Y-70020185D01*
X140116270Y-70053377D01*
X140187359Y-70154902D01*
X140229170Y-70214615D01*
X140229175Y-70214621D01*
X140326872Y-70312318D01*
X140360357Y-70373641D01*
X140355373Y-70443333D01*
X140326873Y-70487680D01*
X140229172Y-70585381D01*
X140102466Y-70766338D01*
X140102465Y-70766340D01*
X140009107Y-70966548D01*
X140009104Y-70966554D01*
X139951930Y-71179929D01*
X139951929Y-71179937D01*
X139932677Y-71399997D01*
X139932677Y-71400002D01*
X139951929Y-71620062D01*
X139951930Y-71620070D01*
X140009104Y-71833445D01*
X140009105Y-71833447D01*
X140009106Y-71833450D01*
X140074748Y-71974221D01*
X140102466Y-72033662D01*
X140102468Y-72033666D01*
X140229170Y-72214615D01*
X140229175Y-72214621D01*
X140385378Y-72370824D01*
X140385384Y-72370829D01*
X140566333Y-72497531D01*
X140566335Y-72497532D01*
X140566338Y-72497534D01*
X140766550Y-72590894D01*
X140979932Y-72648070D01*
X141137123Y-72661822D01*
X141199998Y-72667323D01*
X141200000Y-72667323D01*
X141200002Y-72667323D01*
X141255017Y-72662509D01*
X141420068Y-72648070D01*
X141633450Y-72590894D01*
X141833662Y-72497534D01*
X142014620Y-72370826D01*
X142170826Y-72214620D01*
X142297534Y-72033662D01*
X142390894Y-71833450D01*
X142448070Y-71620068D01*
X142467323Y-71400000D01*
X142448070Y-71179932D01*
X142390894Y-70966550D01*
X142297534Y-70766339D01*
X142170826Y-70585380D01*
X142170824Y-70585377D01*
X142073127Y-70487680D01*
X142039642Y-70426357D01*
X142044626Y-70356665D01*
X142073123Y-70312322D01*
X142170826Y-70214620D01*
X142297534Y-70033662D01*
X142390894Y-69833450D01*
X142448070Y-69620068D01*
X142464091Y-69436948D01*
X142467323Y-69400002D01*
X142467323Y-69399997D01*
X142455233Y-69261806D01*
X142448070Y-69179932D01*
X142390894Y-68966550D01*
X142297534Y-68766339D01*
X142170826Y-68585380D01*
X142170824Y-68585377D01*
X142073127Y-68487680D01*
X142039642Y-68426357D01*
X142044626Y-68356665D01*
X142073123Y-68312322D01*
X142170826Y-68214620D01*
X142297534Y-68033662D01*
X142390894Y-67833450D01*
X142448070Y-67620068D01*
X142462509Y-67455017D01*
X142467323Y-67400002D01*
X142467323Y-67399997D01*
X142452492Y-67230476D01*
X142448070Y-67179932D01*
X142390894Y-66966550D01*
X142297534Y-66766339D01*
X142260625Y-66713628D01*
X142238300Y-66647425D01*
X142255310Y-66579658D01*
X142287889Y-66543244D01*
X142319546Y-66519546D01*
X142405796Y-66404331D01*
X142456091Y-66269483D01*
X142462500Y-66209873D01*
X142462499Y-64590128D01*
X142456091Y-64530517D01*
X142456001Y-64530277D01*
X142405797Y-64395671D01*
X142405793Y-64395664D01*
X142319547Y-64280455D01*
X142319544Y-64280452D01*
X142204335Y-64194206D01*
X142204328Y-64194202D01*
X142069482Y-64143908D01*
X142069483Y-64143908D01*
X142009883Y-64137501D01*
X142009881Y-64137500D01*
X142009873Y-64137500D01*
X142009864Y-64137500D01*
X140390129Y-64137500D01*
X140390123Y-64137501D01*
X140330516Y-64143908D01*
X140195671Y-64194202D01*
X140195664Y-64194206D01*
X140080455Y-64280452D01*
X140080452Y-64280455D01*
X139994206Y-64395664D01*
X139994202Y-64395671D01*
X139943908Y-64530517D01*
X139939187Y-64574435D01*
X139937501Y-64590123D01*
X139937500Y-64590135D01*
X139937500Y-66209870D01*
X139937501Y-66209876D01*
X139943908Y-66269483D01*
X139994202Y-66404328D01*
X139994206Y-66404335D01*
X140080452Y-66519544D01*
X140080455Y-66519547D01*
X140112107Y-66543242D01*
X140153978Y-66599176D01*
X140158962Y-66668867D01*
X140139373Y-66713629D01*
X140128936Y-66728535D01*
X140116271Y-66746621D01*
X140061697Y-66790247D01*
X140014696Y-66799500D01*
X139699069Y-66799500D01*
X139699053Y-66799499D01*
X139691457Y-66799499D01*
X139533343Y-66799499D01*
X139380615Y-66840423D01*
X139380613Y-66840424D01*
X139356732Y-66854210D01*
X139356733Y-66854211D01*
X139243687Y-66919477D01*
X139243682Y-66919481D01*
X139131878Y-67031286D01*
X137594884Y-68568281D01*
X137533561Y-68601766D01*
X137507203Y-68604600D01*
X137220962Y-68604600D01*
X137153923Y-68584915D01*
X137133281Y-68568281D01*
X137125000Y-68560000D01*
X136299000Y-68560000D01*
X136231961Y-68540315D01*
X136186206Y-68487511D01*
X136175000Y-68436000D01*
X136175000Y-68310000D01*
X136049000Y-68310000D01*
X135981961Y-68290315D01*
X135936206Y-68237511D01*
X135925000Y-68186000D01*
X135925000Y-68060000D01*
X136425000Y-68060000D01*
X137124999Y-68060000D01*
X137124999Y-68011692D01*
X137124998Y-68011677D01*
X137114855Y-67912392D01*
X137061547Y-67751518D01*
X137061542Y-67751507D01*
X136972575Y-67607271D01*
X136972572Y-67607267D01*
X136852732Y-67487427D01*
X136852728Y-67487424D01*
X136708492Y-67398457D01*
X136708481Y-67398452D01*
X136547606Y-67345144D01*
X136448322Y-67335000D01*
X136425000Y-67335000D01*
X136425000Y-68060000D01*
X135925000Y-68060000D01*
X135925000Y-67334999D01*
X135901693Y-67335000D01*
X135901674Y-67335001D01*
X135802392Y-67345144D01*
X135641518Y-67398452D01*
X135641509Y-67398456D01*
X135614596Y-67415057D01*
X135547204Y-67433497D01*
X135480540Y-67412574D01*
X135435771Y-67358932D01*
X135425500Y-67309518D01*
X135425500Y-66800481D01*
X135445185Y-66733442D01*
X135497989Y-66687687D01*
X135567147Y-66677743D01*
X135614598Y-66694943D01*
X135641512Y-66711544D01*
X135641518Y-66711547D01*
X135802393Y-66764855D01*
X135901683Y-66774999D01*
X136425000Y-66774999D01*
X136448308Y-66774999D01*
X136448322Y-66774998D01*
X136547607Y-66764855D01*
X136708481Y-66711547D01*
X136708492Y-66711542D01*
X136852728Y-66622575D01*
X136852732Y-66622572D01*
X136972572Y-66502732D01*
X136972575Y-66502728D01*
X137061542Y-66358492D01*
X137061547Y-66358481D01*
X137114855Y-66197606D01*
X137124999Y-66098322D01*
X137125000Y-66098309D01*
X137125000Y-66050000D01*
X136425000Y-66050000D01*
X136425000Y-66774999D01*
X135901683Y-66774999D01*
X135925000Y-66774998D01*
X135925000Y-65550000D01*
X136425000Y-65550000D01*
X137124999Y-65550000D01*
X137124999Y-65501692D01*
X137124998Y-65501677D01*
X137114855Y-65402392D01*
X137061547Y-65241518D01*
X137061542Y-65241507D01*
X136972575Y-65097271D01*
X136972572Y-65097267D01*
X136852732Y-64977427D01*
X136852728Y-64977424D01*
X136708492Y-64888457D01*
X136708481Y-64888452D01*
X136547606Y-64835144D01*
X136448322Y-64825000D01*
X136425000Y-64825000D01*
X136425000Y-65550000D01*
X135925000Y-65550000D01*
X135925000Y-64824999D01*
X135901693Y-64825000D01*
X135901674Y-64825001D01*
X135802392Y-64835144D01*
X135641518Y-64888452D01*
X135641507Y-64888457D01*
X135497271Y-64977424D01*
X135497265Y-64977428D01*
X135488031Y-64986663D01*
X135426707Y-65020146D01*
X135357015Y-65015159D01*
X135312672Y-64986660D01*
X135303044Y-64977032D01*
X135303040Y-64977029D01*
X135158705Y-64888001D01*
X135158699Y-64887998D01*
X135158697Y-64887997D01*
X135114447Y-64873334D01*
X134997709Y-64834651D01*
X134898346Y-64824500D01*
X134351662Y-64824500D01*
X134351644Y-64824501D01*
X134252292Y-64834650D01*
X134252289Y-64834651D01*
X134091305Y-64887996D01*
X134091294Y-64888001D01*
X133940809Y-64980823D01*
X133939131Y-64978103D01*
X133887534Y-64998909D01*
X133875440Y-64999500D01*
X131979040Y-64999500D01*
X131912001Y-64979815D01*
X131891359Y-64963181D01*
X129784173Y-62855995D01*
X129750688Y-62794672D01*
X129755672Y-62724980D01*
X129797544Y-62669047D01*
X129807689Y-62662206D01*
X129860185Y-62630472D01*
X129980472Y-62510185D01*
X130068478Y-62364606D01*
X130119086Y-62202196D01*
X130121668Y-62173777D01*
X130147338Y-62108796D01*
X130204066Y-62068007D01*
X130245159Y-62061000D01*
X132551588Y-62061000D01*
X132618627Y-62080685D01*
X132628903Y-62088055D01*
X132631736Y-62090314D01*
X132631738Y-62090316D01*
X132784478Y-62186289D01*
X132954745Y-62245868D01*
X132989883Y-62249827D01*
X133054296Y-62276892D01*
X133093852Y-62334486D01*
X133100000Y-62373046D01*
X133100000Y-62498306D01*
X133100001Y-62498323D01*
X133110144Y-62597607D01*
X133163452Y-62758481D01*
X133163457Y-62758492D01*
X133252424Y-62902728D01*
X133252427Y-62902732D01*
X133372267Y-63022572D01*
X133372271Y-63022575D01*
X133516507Y-63111542D01*
X133516518Y-63111547D01*
X133677393Y-63164855D01*
X133776683Y-63174999D01*
X133800000Y-63174998D01*
X133800000Y-62324000D01*
X133819685Y-62256961D01*
X133872489Y-62211206D01*
X133924000Y-62200000D01*
X134176000Y-62200000D01*
X134243039Y-62219685D01*
X134288794Y-62272489D01*
X134300000Y-62324000D01*
X134300000Y-63174999D01*
X134323308Y-63174999D01*
X134323322Y-63174998D01*
X134422607Y-63164855D01*
X134583481Y-63111547D01*
X134583492Y-63111542D01*
X134727731Y-63022573D01*
X134736959Y-63013345D01*
X134798279Y-62979856D01*
X134867971Y-62984835D01*
X134912327Y-63013339D01*
X134921955Y-63022967D01*
X134921959Y-63022970D01*
X135066294Y-63111998D01*
X135066297Y-63111999D01*
X135066303Y-63112003D01*
X135227292Y-63165349D01*
X135326655Y-63175500D01*
X135873344Y-63175499D01*
X135873352Y-63175498D01*
X135873355Y-63175498D01*
X135927760Y-63169940D01*
X135972708Y-63165349D01*
X136133697Y-63112003D01*
X136278044Y-63022968D01*
X136397968Y-62903044D01*
X136487003Y-62758697D01*
X136540349Y-62597708D01*
X136550500Y-62498345D01*
X136550499Y-61901656D01*
X136543397Y-61832135D01*
X136540349Y-61802292D01*
X136540348Y-61802289D01*
X136530482Y-61772516D01*
X136487003Y-61641303D01*
X136486999Y-61641297D01*
X136486998Y-61641294D01*
X136397970Y-61496959D01*
X136397967Y-61496955D01*
X136278044Y-61377032D01*
X136278040Y-61377029D01*
X136133705Y-61288001D01*
X136133698Y-61287998D01*
X136133697Y-61287997D01*
X136133694Y-61287996D01*
X136133692Y-61287995D01*
X135972706Y-61234650D01*
X135972707Y-61234650D01*
X135945775Y-61231899D01*
X135881084Y-61205501D01*
X135870699Y-61196222D01*
X134611492Y-59937013D01*
X134611488Y-59937010D01*
X134480385Y-59849409D01*
X134480372Y-59849402D01*
X134334701Y-59789064D01*
X134334689Y-59789061D01*
X134180045Y-59758300D01*
X134180042Y-59758300D01*
X128916142Y-59758300D01*
X128758458Y-59758300D01*
X128758455Y-59758300D01*
X128603810Y-59789061D01*
X128603798Y-59789064D01*
X128458127Y-59849402D01*
X128458114Y-59849409D01*
X128327011Y-59937010D01*
X128327007Y-59937013D01*
X127475841Y-60788181D01*
X127414518Y-60821666D01*
X127388160Y-60824500D01*
X127318384Y-60824500D01*
X127299145Y-60826248D01*
X127247807Y-60830913D01*
X127085393Y-60881522D01*
X126939812Y-60969529D01*
X126937405Y-60971416D01*
X126935318Y-60972246D01*
X126933396Y-60973409D01*
X126933202Y-60973089D01*
X126872491Y-60997261D01*
X126860938Y-60997800D01*
X125328821Y-60997800D01*
X125261782Y-60978115D01*
X125259930Y-60976902D01*
X125130785Y-60890609D01*
X125130772Y-60890602D01*
X124985101Y-60830264D01*
X124985089Y-60830261D01*
X124830445Y-60799500D01*
X124830442Y-60799500D01*
X124253194Y-60799500D01*
X123096806Y-60799500D01*
X123096798Y-60799500D01*
X123059932Y-60802401D01*
X123059926Y-60802402D01*
X122902106Y-60848254D01*
X122902103Y-60848255D01*
X122760637Y-60931917D01*
X122760629Y-60931923D01*
X122644423Y-61048129D01*
X122644414Y-61048140D01*
X122644229Y-61048455D01*
X122644019Y-61048650D01*
X122639639Y-61054298D01*
X122638727Y-61053591D01*
X122593157Y-61096136D01*
X122524415Y-61108637D01*
X122459827Y-61081988D01*
X122435643Y-61054078D01*
X122435361Y-61054298D01*
X122431323Y-61049092D01*
X122430771Y-61048455D01*
X122430585Y-61048140D01*
X122430576Y-61048129D01*
X122314370Y-60931923D01*
X122314362Y-60931917D01*
X122172896Y-60848255D01*
X122172893Y-60848254D01*
X122015073Y-60802402D01*
X122015067Y-60802401D01*
X121978201Y-60799500D01*
X121978194Y-60799500D01*
X121724500Y-60799500D01*
X121657461Y-60779815D01*
X121611706Y-60727011D01*
X121600500Y-60675500D01*
X121600500Y-58210718D01*
X121620185Y-58143679D01*
X121668207Y-58100233D01*
X121707815Y-58080052D01*
X121707815Y-58080051D01*
X121707816Y-58080051D01*
X121799193Y-58013661D01*
X121879786Y-57955109D01*
X121879788Y-57955106D01*
X121879792Y-57955104D01*
X122030104Y-57804792D01*
X122149683Y-57640204D01*
X122205011Y-57597540D01*
X122274624Y-57591561D01*
X122336420Y-57624166D01*
X122350313Y-57640199D01*
X122377557Y-57677697D01*
X122469896Y-57804792D01*
X122620213Y-57955109D01*
X122792179Y-58080048D01*
X122792181Y-58080049D01*
X122792184Y-58080051D01*
X122981588Y-58176557D01*
X123183757Y-58242246D01*
X123393713Y-58275500D01*
X123393714Y-58275500D01*
X123606286Y-58275500D01*
X123606287Y-58275500D01*
X123816243Y-58242246D01*
X124018412Y-58176557D01*
X124207816Y-58080051D01*
X124229789Y-58064086D01*
X124379786Y-57955109D01*
X124379788Y-57955106D01*
X124379792Y-57955104D01*
X124530104Y-57804792D01*
X124649683Y-57640204D01*
X124705011Y-57597540D01*
X124774624Y-57591561D01*
X124836420Y-57624166D01*
X124850313Y-57640199D01*
X124877557Y-57677697D01*
X124969896Y-57804792D01*
X125120213Y-57955109D01*
X125292179Y-58080048D01*
X125292181Y-58080049D01*
X125292184Y-58080051D01*
X125481588Y-58176557D01*
X125683757Y-58242246D01*
X125893713Y-58275500D01*
X125893714Y-58275500D01*
X126106286Y-58275500D01*
X126106287Y-58275500D01*
X126316243Y-58242246D01*
X126518412Y-58176557D01*
X126707816Y-58080051D01*
X126729789Y-58064086D01*
X126879786Y-57955109D01*
X126879788Y-57955106D01*
X126879792Y-57955104D01*
X127030104Y-57804792D01*
X127149683Y-57640204D01*
X127205011Y-57597540D01*
X127274624Y-57591561D01*
X127336420Y-57624166D01*
X127350313Y-57640199D01*
X127377557Y-57677697D01*
X127469896Y-57804792D01*
X127620213Y-57955109D01*
X127792179Y-58080048D01*
X127792181Y-58080049D01*
X127792184Y-58080051D01*
X127981588Y-58176557D01*
X128183757Y-58242246D01*
X128393713Y-58275500D01*
X128393714Y-58275500D01*
X128606286Y-58275500D01*
X128606287Y-58275500D01*
X128816243Y-58242246D01*
X129018412Y-58176557D01*
X129207816Y-58080051D01*
X129229789Y-58064086D01*
X129379786Y-57955109D01*
X129379788Y-57955106D01*
X129379792Y-57955104D01*
X129530104Y-57804792D01*
X129530106Y-57804788D01*
X129530109Y-57804786D01*
X129655048Y-57632820D01*
X129655047Y-57632820D01*
X129655051Y-57632816D01*
X129751557Y-57443412D01*
X129817246Y-57241243D01*
X129850500Y-57031287D01*
X129850500Y-56568713D01*
X129817246Y-56358757D01*
X129751557Y-56156588D01*
X129655051Y-55967184D01*
X129655049Y-55967181D01*
X129655048Y-55967179D01*
X129604531Y-55897648D01*
X145499500Y-55897648D01*
X145499500Y-56102351D01*
X145531522Y-56304534D01*
X145594781Y-56499223D01*
X145687715Y-56681613D01*
X145808028Y-56847213D01*
X145952786Y-56991971D01*
X146058090Y-57068477D01*
X146118390Y-57112287D01*
X146234607Y-57171503D01*
X146300776Y-57205218D01*
X146300778Y-57205218D01*
X146300781Y-57205220D01*
X146405137Y-57239127D01*
X146495465Y-57268477D01*
X146596557Y-57284488D01*
X146697648Y-57300500D01*
X146697649Y-57300500D01*
X146902351Y-57300500D01*
X146902352Y-57300500D01*
X147104534Y-57268477D01*
X147299219Y-57205220D01*
X147481610Y-57112287D01*
X147593099Y-57031286D01*
X147647213Y-56991971D01*
X147647215Y-56991968D01*
X147647219Y-56991966D01*
X147791966Y-56847219D01*
X147791968Y-56847215D01*
X147791971Y-56847213D01*
X147871706Y-56737465D01*
X147912287Y-56681610D01*
X148005220Y-56499219D01*
X148068477Y-56304534D01*
X148100500Y-56102352D01*
X148100500Y-55897648D01*
X148087094Y-55813007D01*
X148068477Y-55695465D01*
X148039127Y-55605137D01*
X148005220Y-55500781D01*
X148005218Y-55500778D01*
X148005218Y-55500776D01*
X147965814Y-55423443D01*
X147912287Y-55318390D01*
X147899490Y-55300776D01*
X147791971Y-55152786D01*
X147647213Y-55008028D01*
X147481613Y-54887715D01*
X147481612Y-54887714D01*
X147481610Y-54887713D01*
X147424653Y-54858691D01*
X147299223Y-54794781D01*
X147104534Y-54731522D01*
X146929995Y-54703878D01*
X146902352Y-54699500D01*
X146697648Y-54699500D01*
X146673329Y-54703351D01*
X146495465Y-54731522D01*
X146300776Y-54794781D01*
X146118386Y-54887715D01*
X145952786Y-55008028D01*
X145808028Y-55152786D01*
X145687715Y-55318386D01*
X145594781Y-55500776D01*
X145531522Y-55695465D01*
X145499500Y-55897648D01*
X129604531Y-55897648D01*
X129530109Y-55795213D01*
X129379786Y-55644890D01*
X129207820Y-55519951D01*
X129018414Y-55423444D01*
X129018413Y-55423443D01*
X129018412Y-55423443D01*
X128816243Y-55357754D01*
X128816241Y-55357753D01*
X128816240Y-55357753D01*
X128654957Y-55332208D01*
X128606287Y-55324500D01*
X128393713Y-55324500D01*
X128345042Y-55332208D01*
X128183760Y-55357753D01*
X127981585Y-55423444D01*
X127792179Y-55519951D01*
X127620213Y-55644890D01*
X127469894Y-55795209D01*
X127469890Y-55795214D01*
X127350318Y-55959793D01*
X127294989Y-56002459D01*
X127225375Y-56008438D01*
X127163580Y-55975833D01*
X127149682Y-55959793D01*
X127030109Y-55795214D01*
X127030105Y-55795209D01*
X126879786Y-55644890D01*
X126707820Y-55519951D01*
X126518414Y-55423444D01*
X126518413Y-55423443D01*
X126518412Y-55423443D01*
X126316243Y-55357754D01*
X126316241Y-55357753D01*
X126316240Y-55357753D01*
X126154957Y-55332208D01*
X126106287Y-55324500D01*
X125893713Y-55324500D01*
X125845042Y-55332208D01*
X125683760Y-55357753D01*
X125481585Y-55423444D01*
X125292179Y-55519951D01*
X125120213Y-55644890D01*
X124969894Y-55795209D01*
X124969890Y-55795214D01*
X124850318Y-55959793D01*
X124794989Y-56002459D01*
X124725375Y-56008438D01*
X124663580Y-55975833D01*
X124649682Y-55959793D01*
X124530109Y-55795214D01*
X124530105Y-55795209D01*
X124379786Y-55644890D01*
X124207820Y-55519951D01*
X124018414Y-55423444D01*
X124018413Y-55423443D01*
X124018412Y-55423443D01*
X123816243Y-55357754D01*
X123816241Y-55357753D01*
X123816240Y-55357753D01*
X123654957Y-55332208D01*
X123606287Y-55324500D01*
X123393713Y-55324500D01*
X123345042Y-55332208D01*
X123183760Y-55357753D01*
X122981585Y-55423444D01*
X122792179Y-55519951D01*
X122620213Y-55644890D01*
X122469894Y-55795209D01*
X122469890Y-55795214D01*
X122350318Y-55959793D01*
X122294989Y-56002459D01*
X122225375Y-56008438D01*
X122163580Y-55975833D01*
X122149682Y-55959793D01*
X122030109Y-55795214D01*
X122030105Y-55795209D01*
X121879786Y-55644890D01*
X121707820Y-55519951D01*
X121518414Y-55423444D01*
X121518413Y-55423443D01*
X121518412Y-55423443D01*
X121316243Y-55357754D01*
X121316241Y-55357753D01*
X121316240Y-55357753D01*
X121154957Y-55332208D01*
X121106287Y-55324500D01*
X120893713Y-55324500D01*
X120845042Y-55332208D01*
X120683760Y-55357753D01*
X120481585Y-55423444D01*
X120292179Y-55519951D01*
X120120213Y-55644890D01*
X119969894Y-55795209D01*
X119969890Y-55795214D01*
X119850008Y-55960218D01*
X119794678Y-56002884D01*
X119725065Y-56008863D01*
X119663270Y-55976257D01*
X119649372Y-55960218D01*
X119529727Y-55795540D01*
X119529723Y-55795535D01*
X119379464Y-55645276D01*
X119379459Y-55645272D01*
X119207557Y-55520379D01*
X119018215Y-55423903D01*
X118816124Y-55358241D01*
X118750000Y-55347768D01*
X118750000Y-56395854D01*
X118683343Y-56357370D01*
X118562535Y-56325000D01*
X118437465Y-56325000D01*
X118316657Y-56357370D01*
X118250000Y-56395854D01*
X118250000Y-55347768D01*
X118249999Y-55347768D01*
X118183875Y-55358241D01*
X117981784Y-55423903D01*
X117792442Y-55520379D01*
X117620541Y-55645271D01*
X117481305Y-55784507D01*
X117419982Y-55817991D01*
X117350290Y-55813007D01*
X117294357Y-55771135D01*
X117288085Y-55761922D01*
X117192315Y-55606654D01*
X117068345Y-55482684D01*
X116919124Y-55390643D01*
X116919119Y-55390641D01*
X116752697Y-55335494D01*
X116752690Y-55335493D01*
X116649986Y-55325000D01*
X116250000Y-55325000D01*
X116250000Y-56395854D01*
X116183343Y-56357370D01*
X116062535Y-56325000D01*
X115937465Y-56325000D01*
X115816657Y-56357370D01*
X115750000Y-56395854D01*
X115750000Y-55325000D01*
X115350028Y-55325000D01*
X115350012Y-55325001D01*
X115247302Y-55335494D01*
X115080880Y-55390641D01*
X115080875Y-55390643D01*
X114931654Y-55482684D01*
X114807684Y-55606654D01*
X114715643Y-55755875D01*
X114715641Y-55755880D01*
X114660494Y-55922302D01*
X114660493Y-55922309D01*
X114650000Y-56025013D01*
X99681072Y-56025013D01*
X99700500Y-55902352D01*
X99700500Y-55697648D01*
X99668477Y-55495466D01*
X99605220Y-55300781D01*
X99605218Y-55300778D01*
X99605218Y-55300776D01*
X99571503Y-55234607D01*
X99512287Y-55118390D01*
X99504556Y-55107749D01*
X99391971Y-54952786D01*
X99247213Y-54808028D01*
X99081613Y-54687715D01*
X99081612Y-54687714D01*
X99081610Y-54687713D01*
X99024653Y-54658691D01*
X98899223Y-54594781D01*
X98704534Y-54531522D01*
X98529995Y-54503878D01*
X98502352Y-54499500D01*
X98297648Y-54499500D01*
X98273329Y-54503351D01*
X98095465Y-54531522D01*
X97900776Y-54594781D01*
X97718386Y-54687715D01*
X97552786Y-54808028D01*
X97408028Y-54952786D01*
X97287715Y-55118386D01*
X97194781Y-55300776D01*
X97131522Y-55495465D01*
X97099500Y-55697648D01*
X95500500Y-55697648D01*
X95500500Y-52224500D01*
X95520185Y-52157461D01*
X95572989Y-52111706D01*
X95624500Y-52100500D01*
X149375500Y-52100500D01*
X149442539Y-52120185D01*
G37*
%TD.AperFunction*%
%TD*%
M02*
