%TF.GenerationSoftware,KiCad,Pcbnew,8.0.8*%
%TF.CreationDate,2025-06-30T12:07:11+05:30*%
%TF.ProjectId,openlog,6f70656e-6c6f-4672-9e6b-696361645f70,rev?*%
%TF.SameCoordinates,Original*%
%TF.FileFunction,Legend,Top*%
%TF.FilePolarity,Positive*%
%FSLAX46Y46*%
G04 Gerber Fmt 4.6, Leading zero omitted, Abs format (unit mm)*
G04 Created by KiCad (PCBNEW 8.0.8) date 2025-06-30 12:07:11*
%MOMM*%
%LPD*%
G01*
G04 APERTURE LIST*
%ADD10C,0.150000*%
%ADD11C,0.120000*%
G04 APERTURE END LIST*
D10*
X128233333Y-60824819D02*
X127900000Y-60348628D01*
X127661905Y-60824819D02*
X127661905Y-59824819D01*
X127661905Y-59824819D02*
X128042857Y-59824819D01*
X128042857Y-59824819D02*
X128138095Y-59872438D01*
X128138095Y-59872438D02*
X128185714Y-59920057D01*
X128185714Y-59920057D02*
X128233333Y-60015295D01*
X128233333Y-60015295D02*
X128233333Y-60158152D01*
X128233333Y-60158152D02*
X128185714Y-60253390D01*
X128185714Y-60253390D02*
X128138095Y-60301009D01*
X128138095Y-60301009D02*
X128042857Y-60348628D01*
X128042857Y-60348628D02*
X127661905Y-60348628D01*
X128566667Y-59824819D02*
X129185714Y-59824819D01*
X129185714Y-59824819D02*
X128852381Y-60205771D01*
X128852381Y-60205771D02*
X128995238Y-60205771D01*
X128995238Y-60205771D02*
X129090476Y-60253390D01*
X129090476Y-60253390D02*
X129138095Y-60301009D01*
X129138095Y-60301009D02*
X129185714Y-60396247D01*
X129185714Y-60396247D02*
X129185714Y-60634342D01*
X129185714Y-60634342D02*
X129138095Y-60729580D01*
X129138095Y-60729580D02*
X129090476Y-60777200D01*
X129090476Y-60777200D02*
X128995238Y-60824819D01*
X128995238Y-60824819D02*
X128709524Y-60824819D01*
X128709524Y-60824819D02*
X128614286Y-60777200D01*
X128614286Y-60777200D02*
X128566667Y-60729580D01*
X135233333Y-64729580D02*
X135185714Y-64777200D01*
X135185714Y-64777200D02*
X135042857Y-64824819D01*
X135042857Y-64824819D02*
X134947619Y-64824819D01*
X134947619Y-64824819D02*
X134804762Y-64777200D01*
X134804762Y-64777200D02*
X134709524Y-64681961D01*
X134709524Y-64681961D02*
X134661905Y-64586723D01*
X134661905Y-64586723D02*
X134614286Y-64396247D01*
X134614286Y-64396247D02*
X134614286Y-64253390D01*
X134614286Y-64253390D02*
X134661905Y-64062914D01*
X134661905Y-64062914D02*
X134709524Y-63967676D01*
X134709524Y-63967676D02*
X134804762Y-63872438D01*
X134804762Y-63872438D02*
X134947619Y-63824819D01*
X134947619Y-63824819D02*
X135042857Y-63824819D01*
X135042857Y-63824819D02*
X135185714Y-63872438D01*
X135185714Y-63872438D02*
X135233333Y-63920057D01*
X135614286Y-63920057D02*
X135661905Y-63872438D01*
X135661905Y-63872438D02*
X135757143Y-63824819D01*
X135757143Y-63824819D02*
X135995238Y-63824819D01*
X135995238Y-63824819D02*
X136090476Y-63872438D01*
X136090476Y-63872438D02*
X136138095Y-63920057D01*
X136138095Y-63920057D02*
X136185714Y-64015295D01*
X136185714Y-64015295D02*
X136185714Y-64110533D01*
X136185714Y-64110533D02*
X136138095Y-64253390D01*
X136138095Y-64253390D02*
X135566667Y-64824819D01*
X135566667Y-64824819D02*
X136185714Y-64824819D01*
X121916666Y-53454819D02*
X121916666Y-54169104D01*
X121916666Y-54169104D02*
X121869047Y-54311961D01*
X121869047Y-54311961D02*
X121773809Y-54407200D01*
X121773809Y-54407200D02*
X121630952Y-54454819D01*
X121630952Y-54454819D02*
X121535714Y-54454819D01*
X122297619Y-53454819D02*
X122916666Y-53454819D01*
X122916666Y-53454819D02*
X122583333Y-53835771D01*
X122583333Y-53835771D02*
X122726190Y-53835771D01*
X122726190Y-53835771D02*
X122821428Y-53883390D01*
X122821428Y-53883390D02*
X122869047Y-53931009D01*
X122869047Y-53931009D02*
X122916666Y-54026247D01*
X122916666Y-54026247D02*
X122916666Y-54264342D01*
X122916666Y-54264342D02*
X122869047Y-54359580D01*
X122869047Y-54359580D02*
X122821428Y-54407200D01*
X122821428Y-54407200D02*
X122726190Y-54454819D01*
X122726190Y-54454819D02*
X122440476Y-54454819D01*
X122440476Y-54454819D02*
X122345238Y-54407200D01*
X122345238Y-54407200D02*
X122297619Y-54359580D01*
X131066666Y-75959819D02*
X131066666Y-76674104D01*
X131066666Y-76674104D02*
X131019047Y-76816961D01*
X131019047Y-76816961D02*
X130923809Y-76912200D01*
X130923809Y-76912200D02*
X130780952Y-76959819D01*
X130780952Y-76959819D02*
X130685714Y-76959819D01*
X132066666Y-76959819D02*
X131495238Y-76959819D01*
X131780952Y-76959819D02*
X131780952Y-75959819D01*
X131780952Y-75959819D02*
X131685714Y-76102676D01*
X131685714Y-76102676D02*
X131590476Y-76197914D01*
X131590476Y-76197914D02*
X131495238Y-76245533D01*
X97638095Y-53054819D02*
X97638095Y-52054819D01*
X97638095Y-52531009D02*
X98209523Y-52531009D01*
X98209523Y-53054819D02*
X98209523Y-52054819D01*
X99209523Y-53054819D02*
X98638095Y-53054819D01*
X98923809Y-53054819D02*
X98923809Y-52054819D01*
X98923809Y-52054819D02*
X98828571Y-52197676D01*
X98828571Y-52197676D02*
X98733333Y-52292914D01*
X98733333Y-52292914D02*
X98638095Y-52340533D01*
X139366666Y-60854819D02*
X139366666Y-61569104D01*
X139366666Y-61569104D02*
X139319047Y-61711961D01*
X139319047Y-61711961D02*
X139223809Y-61807200D01*
X139223809Y-61807200D02*
X139080952Y-61854819D01*
X139080952Y-61854819D02*
X138985714Y-61854819D01*
X140271428Y-61188152D02*
X140271428Y-61854819D01*
X140033333Y-60807200D02*
X139795238Y-61521485D01*
X139795238Y-61521485D02*
X140414285Y-61521485D01*
X126598809Y-75758628D02*
X126598809Y-76234819D01*
X126265476Y-75234819D02*
X126598809Y-75758628D01*
X126598809Y-75758628D02*
X126932142Y-75234819D01*
X127789285Y-76234819D02*
X127217857Y-76234819D01*
X127503571Y-76234819D02*
X127503571Y-75234819D01*
X127503571Y-75234819D02*
X127408333Y-75377676D01*
X127408333Y-75377676D02*
X127313095Y-75472914D01*
X127313095Y-75472914D02*
X127217857Y-75520533D01*
X133233333Y-69759580D02*
X133185714Y-69807200D01*
X133185714Y-69807200D02*
X133042857Y-69854819D01*
X133042857Y-69854819D02*
X132947619Y-69854819D01*
X132947619Y-69854819D02*
X132804762Y-69807200D01*
X132804762Y-69807200D02*
X132709524Y-69711961D01*
X132709524Y-69711961D02*
X132661905Y-69616723D01*
X132661905Y-69616723D02*
X132614286Y-69426247D01*
X132614286Y-69426247D02*
X132614286Y-69283390D01*
X132614286Y-69283390D02*
X132661905Y-69092914D01*
X132661905Y-69092914D02*
X132709524Y-68997676D01*
X132709524Y-68997676D02*
X132804762Y-68902438D01*
X132804762Y-68902438D02*
X132947619Y-68854819D01*
X132947619Y-68854819D02*
X133042857Y-68854819D01*
X133042857Y-68854819D02*
X133185714Y-68902438D01*
X133185714Y-68902438D02*
X133233333Y-68950057D01*
X134090476Y-69188152D02*
X134090476Y-69854819D01*
X133852381Y-68807200D02*
X133614286Y-69521485D01*
X133614286Y-69521485D02*
X134233333Y-69521485D01*
X137433333Y-76254819D02*
X137100000Y-75778628D01*
X136861905Y-76254819D02*
X136861905Y-75254819D01*
X136861905Y-75254819D02*
X137242857Y-75254819D01*
X137242857Y-75254819D02*
X137338095Y-75302438D01*
X137338095Y-75302438D02*
X137385714Y-75350057D01*
X137385714Y-75350057D02*
X137433333Y-75445295D01*
X137433333Y-75445295D02*
X137433333Y-75588152D01*
X137433333Y-75588152D02*
X137385714Y-75683390D01*
X137385714Y-75683390D02*
X137338095Y-75731009D01*
X137338095Y-75731009D02*
X137242857Y-75778628D01*
X137242857Y-75778628D02*
X136861905Y-75778628D01*
X137814286Y-75350057D02*
X137861905Y-75302438D01*
X137861905Y-75302438D02*
X137957143Y-75254819D01*
X137957143Y-75254819D02*
X138195238Y-75254819D01*
X138195238Y-75254819D02*
X138290476Y-75302438D01*
X138290476Y-75302438D02*
X138338095Y-75350057D01*
X138338095Y-75350057D02*
X138385714Y-75445295D01*
X138385714Y-75445295D02*
X138385714Y-75540533D01*
X138385714Y-75540533D02*
X138338095Y-75683390D01*
X138338095Y-75683390D02*
X137766667Y-76254819D01*
X137766667Y-76254819D02*
X138385714Y-76254819D01*
X146038095Y-53254819D02*
X146038095Y-52254819D01*
X146038095Y-52731009D02*
X146609523Y-52731009D01*
X146609523Y-53254819D02*
X146609523Y-52254819D01*
X147038095Y-52350057D02*
X147085714Y-52302438D01*
X147085714Y-52302438D02*
X147180952Y-52254819D01*
X147180952Y-52254819D02*
X147419047Y-52254819D01*
X147419047Y-52254819D02*
X147514285Y-52302438D01*
X147514285Y-52302438D02*
X147561904Y-52350057D01*
X147561904Y-52350057D02*
X147609523Y-52445295D01*
X147609523Y-52445295D02*
X147609523Y-52540533D01*
X147609523Y-52540533D02*
X147561904Y-52683390D01*
X147561904Y-52683390D02*
X146990476Y-53254819D01*
X146990476Y-53254819D02*
X147609523Y-53254819D01*
X139049405Y-75824819D02*
X139049405Y-74824819D01*
X139049405Y-74824819D02*
X139287500Y-74824819D01*
X139287500Y-74824819D02*
X139430357Y-74872438D01*
X139430357Y-74872438D02*
X139525595Y-74967676D01*
X139525595Y-74967676D02*
X139573214Y-75062914D01*
X139573214Y-75062914D02*
X139620833Y-75253390D01*
X139620833Y-75253390D02*
X139620833Y-75396247D01*
X139620833Y-75396247D02*
X139573214Y-75586723D01*
X139573214Y-75586723D02*
X139525595Y-75681961D01*
X139525595Y-75681961D02*
X139430357Y-75777200D01*
X139430357Y-75777200D02*
X139287500Y-75824819D01*
X139287500Y-75824819D02*
X139049405Y-75824819D01*
X140001786Y-74920057D02*
X140049405Y-74872438D01*
X140049405Y-74872438D02*
X140144643Y-74824819D01*
X140144643Y-74824819D02*
X140382738Y-74824819D01*
X140382738Y-74824819D02*
X140477976Y-74872438D01*
X140477976Y-74872438D02*
X140525595Y-74920057D01*
X140525595Y-74920057D02*
X140573214Y-75015295D01*
X140573214Y-75015295D02*
X140573214Y-75110533D01*
X140573214Y-75110533D02*
X140525595Y-75253390D01*
X140525595Y-75253390D02*
X139954167Y-75824819D01*
X139954167Y-75824819D02*
X140573214Y-75824819D01*
X134461905Y-77624819D02*
X134461905Y-76624819D01*
X134461905Y-76624819D02*
X134700000Y-76624819D01*
X134700000Y-76624819D02*
X134842857Y-76672438D01*
X134842857Y-76672438D02*
X134938095Y-76767676D01*
X134938095Y-76767676D02*
X134985714Y-76862914D01*
X134985714Y-76862914D02*
X135033333Y-77053390D01*
X135033333Y-77053390D02*
X135033333Y-77196247D01*
X135033333Y-77196247D02*
X134985714Y-77386723D01*
X134985714Y-77386723D02*
X134938095Y-77481961D01*
X134938095Y-77481961D02*
X134842857Y-77577200D01*
X134842857Y-77577200D02*
X134700000Y-77624819D01*
X134700000Y-77624819D02*
X134461905Y-77624819D01*
X135985714Y-77624819D02*
X135414286Y-77624819D01*
X135700000Y-77624819D02*
X135700000Y-76624819D01*
X135700000Y-76624819D02*
X135604762Y-76767676D01*
X135604762Y-76767676D02*
X135509524Y-76862914D01*
X135509524Y-76862914D02*
X135414286Y-76910533D01*
X121775595Y-59604819D02*
X121775595Y-60414342D01*
X121775595Y-60414342D02*
X121823214Y-60509580D01*
X121823214Y-60509580D02*
X121870833Y-60557200D01*
X121870833Y-60557200D02*
X121966071Y-60604819D01*
X121966071Y-60604819D02*
X122156547Y-60604819D01*
X122156547Y-60604819D02*
X122251785Y-60557200D01*
X122251785Y-60557200D02*
X122299404Y-60509580D01*
X122299404Y-60509580D02*
X122347023Y-60414342D01*
X122347023Y-60414342D02*
X122347023Y-59604819D01*
X123347023Y-60604819D02*
X122775595Y-60604819D01*
X123061309Y-60604819D02*
X123061309Y-59604819D01*
X123061309Y-59604819D02*
X122966071Y-59747676D01*
X122966071Y-59747676D02*
X122870833Y-59842914D01*
X122870833Y-59842914D02*
X122775595Y-59890533D01*
X134658333Y-61129580D02*
X134610714Y-61177200D01*
X134610714Y-61177200D02*
X134467857Y-61224819D01*
X134467857Y-61224819D02*
X134372619Y-61224819D01*
X134372619Y-61224819D02*
X134229762Y-61177200D01*
X134229762Y-61177200D02*
X134134524Y-61081961D01*
X134134524Y-61081961D02*
X134086905Y-60986723D01*
X134086905Y-60986723D02*
X134039286Y-60796247D01*
X134039286Y-60796247D02*
X134039286Y-60653390D01*
X134039286Y-60653390D02*
X134086905Y-60462914D01*
X134086905Y-60462914D02*
X134134524Y-60367676D01*
X134134524Y-60367676D02*
X134229762Y-60272438D01*
X134229762Y-60272438D02*
X134372619Y-60224819D01*
X134372619Y-60224819D02*
X134467857Y-60224819D01*
X134467857Y-60224819D02*
X134610714Y-60272438D01*
X134610714Y-60272438D02*
X134658333Y-60320057D01*
X135610714Y-61224819D02*
X135039286Y-61224819D01*
X135325000Y-61224819D02*
X135325000Y-60224819D01*
X135325000Y-60224819D02*
X135229762Y-60367676D01*
X135229762Y-60367676D02*
X135134524Y-60462914D01*
X135134524Y-60462914D02*
X135039286Y-60510533D01*
X97438095Y-81454819D02*
X97438095Y-80454819D01*
X97438095Y-80931009D02*
X98009523Y-80931009D01*
X98009523Y-81454819D02*
X98009523Y-80454819D01*
X98914285Y-80788152D02*
X98914285Y-81454819D01*
X98676190Y-80407200D02*
X98438095Y-81121485D01*
X98438095Y-81121485D02*
X99057142Y-81121485D01*
X132433333Y-72354819D02*
X132100000Y-71878628D01*
X131861905Y-72354819D02*
X131861905Y-71354819D01*
X131861905Y-71354819D02*
X132242857Y-71354819D01*
X132242857Y-71354819D02*
X132338095Y-71402438D01*
X132338095Y-71402438D02*
X132385714Y-71450057D01*
X132385714Y-71450057D02*
X132433333Y-71545295D01*
X132433333Y-71545295D02*
X132433333Y-71688152D01*
X132433333Y-71688152D02*
X132385714Y-71783390D01*
X132385714Y-71783390D02*
X132338095Y-71831009D01*
X132338095Y-71831009D02*
X132242857Y-71878628D01*
X132242857Y-71878628D02*
X131861905Y-71878628D01*
X133385714Y-72354819D02*
X132814286Y-72354819D01*
X133100000Y-72354819D02*
X133100000Y-71354819D01*
X133100000Y-71354819D02*
X133004762Y-71497676D01*
X133004762Y-71497676D02*
X132909524Y-71592914D01*
X132909524Y-71592914D02*
X132814286Y-71640533D01*
X145838095Y-81054819D02*
X145838095Y-80054819D01*
X145838095Y-80531009D02*
X146409523Y-80531009D01*
X146409523Y-81054819D02*
X146409523Y-80054819D01*
X146790476Y-80054819D02*
X147409523Y-80054819D01*
X147409523Y-80054819D02*
X147076190Y-80435771D01*
X147076190Y-80435771D02*
X147219047Y-80435771D01*
X147219047Y-80435771D02*
X147314285Y-80483390D01*
X147314285Y-80483390D02*
X147361904Y-80531009D01*
X147361904Y-80531009D02*
X147409523Y-80626247D01*
X147409523Y-80626247D02*
X147409523Y-80864342D01*
X147409523Y-80864342D02*
X147361904Y-80959580D01*
X147361904Y-80959580D02*
X147314285Y-81007200D01*
X147314285Y-81007200D02*
X147219047Y-81054819D01*
X147219047Y-81054819D02*
X146933333Y-81054819D01*
X146933333Y-81054819D02*
X146838095Y-81007200D01*
X146838095Y-81007200D02*
X146790476Y-80959580D01*
X118099819Y-69463333D02*
X118814104Y-69463333D01*
X118814104Y-69463333D02*
X118956961Y-69510952D01*
X118956961Y-69510952D02*
X119052200Y-69606190D01*
X119052200Y-69606190D02*
X119099819Y-69749047D01*
X119099819Y-69749047D02*
X119099819Y-69844285D01*
X118195057Y-69034761D02*
X118147438Y-68987142D01*
X118147438Y-68987142D02*
X118099819Y-68891904D01*
X118099819Y-68891904D02*
X118099819Y-68653809D01*
X118099819Y-68653809D02*
X118147438Y-68558571D01*
X118147438Y-68558571D02*
X118195057Y-68510952D01*
X118195057Y-68510952D02*
X118290295Y-68463333D01*
X118290295Y-68463333D02*
X118385533Y-68463333D01*
X118385533Y-68463333D02*
X118528390Y-68510952D01*
X118528390Y-68510952D02*
X119099819Y-69082380D01*
X119099819Y-69082380D02*
X119099819Y-68463333D01*
X135233333Y-67239580D02*
X135185714Y-67287200D01*
X135185714Y-67287200D02*
X135042857Y-67334819D01*
X135042857Y-67334819D02*
X134947619Y-67334819D01*
X134947619Y-67334819D02*
X134804762Y-67287200D01*
X134804762Y-67287200D02*
X134709524Y-67191961D01*
X134709524Y-67191961D02*
X134661905Y-67096723D01*
X134661905Y-67096723D02*
X134614286Y-66906247D01*
X134614286Y-66906247D02*
X134614286Y-66763390D01*
X134614286Y-66763390D02*
X134661905Y-66572914D01*
X134661905Y-66572914D02*
X134709524Y-66477676D01*
X134709524Y-66477676D02*
X134804762Y-66382438D01*
X134804762Y-66382438D02*
X134947619Y-66334819D01*
X134947619Y-66334819D02*
X135042857Y-66334819D01*
X135042857Y-66334819D02*
X135185714Y-66382438D01*
X135185714Y-66382438D02*
X135233333Y-66430057D01*
X135566667Y-66334819D02*
X136185714Y-66334819D01*
X136185714Y-66334819D02*
X135852381Y-66715771D01*
X135852381Y-66715771D02*
X135995238Y-66715771D01*
X135995238Y-66715771D02*
X136090476Y-66763390D01*
X136090476Y-66763390D02*
X136138095Y-66811009D01*
X136138095Y-66811009D02*
X136185714Y-66906247D01*
X136185714Y-66906247D02*
X136185714Y-67144342D01*
X136185714Y-67144342D02*
X136138095Y-67239580D01*
X136138095Y-67239580D02*
X136090476Y-67287200D01*
X136090476Y-67287200D02*
X135995238Y-67334819D01*
X135995238Y-67334819D02*
X135709524Y-67334819D01*
X135709524Y-67334819D02*
X135614286Y-67287200D01*
X135614286Y-67287200D02*
X135566667Y-67239580D01*
X124788095Y-63404819D02*
X124788095Y-64214342D01*
X124788095Y-64214342D02*
X124835714Y-64309580D01*
X124835714Y-64309580D02*
X124883333Y-64357200D01*
X124883333Y-64357200D02*
X124978571Y-64404819D01*
X124978571Y-64404819D02*
X125169047Y-64404819D01*
X125169047Y-64404819D02*
X125264285Y-64357200D01*
X125264285Y-64357200D02*
X125311904Y-64309580D01*
X125311904Y-64309580D02*
X125359523Y-64214342D01*
X125359523Y-64214342D02*
X125359523Y-63404819D01*
X125788095Y-63500057D02*
X125835714Y-63452438D01*
X125835714Y-63452438D02*
X125930952Y-63404819D01*
X125930952Y-63404819D02*
X126169047Y-63404819D01*
X126169047Y-63404819D02*
X126264285Y-63452438D01*
X126264285Y-63452438D02*
X126311904Y-63500057D01*
X126311904Y-63500057D02*
X126359523Y-63595295D01*
X126359523Y-63595295D02*
X126359523Y-63690533D01*
X126359523Y-63690533D02*
X126311904Y-63833390D01*
X126311904Y-63833390D02*
X125740476Y-64404819D01*
X125740476Y-64404819D02*
X126359523Y-64404819D01*
D11*
%TO.C,R3*%
X128162742Y-61277500D02*
X128637258Y-61277500D01*
X128162742Y-62322500D02*
X128637258Y-62322500D01*
%TO.C,C2*%
X135259420Y-65290000D02*
X135540580Y-65290000D01*
X135259420Y-66310000D02*
X135540580Y-66310000D01*
%TO.C,J3*%
X113090000Y-56910000D02*
X113090000Y-59410000D01*
X113090000Y-59410000D02*
X115590000Y-59410000D01*
X113390000Y-55090000D02*
X113390000Y-59110000D01*
X113390000Y-56800000D02*
X113890000Y-56800000D01*
X113390000Y-57610000D02*
X114390000Y-57610000D01*
X113390000Y-59110000D02*
X131110000Y-59110000D01*
X113890000Y-55590000D02*
X130610000Y-55590000D01*
X113890000Y-56800000D02*
X113890000Y-55590000D01*
X114390000Y-57610000D02*
X114390000Y-59110000D01*
X130110000Y-57610000D02*
X130110000Y-59110000D01*
X130610000Y-55590000D02*
X130610000Y-56800000D01*
X130610000Y-56800000D02*
X131110000Y-56800000D01*
X131110000Y-55090000D02*
X113390000Y-55090000D01*
X131110000Y-57610000D02*
X130110000Y-57610000D01*
X131110000Y-59110000D02*
X131110000Y-55090000D01*
%TO.C,J1*%
X130290000Y-77440000D02*
X131400000Y-77440000D01*
X130290000Y-78200000D02*
X130290000Y-77440000D01*
X130290000Y-78960000D02*
X130290000Y-78895000D01*
X130290000Y-78960000D02*
X130836529Y-78960000D01*
X130290000Y-78960000D02*
X132510000Y-78960000D01*
X131963471Y-78960000D02*
X132510000Y-78960000D01*
X132510000Y-78960000D02*
X132510000Y-78895000D01*
%TO.C,J4*%
X137900000Y-62900000D02*
X137900000Y-65550000D01*
X137900000Y-62900000D02*
X143750000Y-62900000D01*
X137900000Y-65800000D02*
X137900000Y-66400000D01*
X137900000Y-66650000D02*
X137900000Y-70150000D01*
X137900000Y-70400000D02*
X137900000Y-71000000D01*
X137900000Y-71300000D02*
X137900000Y-73950000D01*
X137900000Y-73950000D02*
X143750000Y-73950000D01*
X141200000Y-62400000D02*
X144200000Y-62400000D01*
X143750000Y-62900000D02*
X143750000Y-73950000D01*
X144200000Y-62400000D02*
X144200000Y-65400000D01*
%TO.C,Y1*%
X123200000Y-77100000D02*
X126900000Y-77100000D01*
X126900000Y-77100000D02*
X126900000Y-80500000D01*
X126900000Y-78300000D02*
X127300000Y-77530000D01*
X126900000Y-79300000D02*
X127300000Y-80070000D01*
X126900000Y-80500000D02*
X123200000Y-80500000D01*
X127300000Y-77530000D02*
X127300000Y-77530000D01*
X127300000Y-80070000D02*
X127300000Y-80070000D01*
%TO.C,C4*%
X135259420Y-70310000D02*
X135540580Y-70310000D01*
X135259420Y-71330000D02*
X135540580Y-71330000D01*
%TO.C,R2*%
X135162742Y-75317500D02*
X135637258Y-75317500D01*
X135162742Y-76362500D02*
X135637258Y-76362500D01*
%TO.C,D2*%
X138302500Y-76065000D02*
X138302500Y-77535000D01*
X138302500Y-77535000D02*
X140587500Y-77535000D01*
X140587500Y-76065000D02*
X138302500Y-76065000D01*
%TO.C,D1*%
X133715000Y-77865000D02*
X133715000Y-79335000D01*
X133715000Y-79335000D02*
X136000000Y-79335000D01*
X136000000Y-77865000D02*
X133715000Y-77865000D01*
%TO.C,U1*%
X122537500Y-60990000D02*
X121737500Y-60990000D01*
X122537500Y-60990000D02*
X123337500Y-60990000D01*
X122537500Y-64110000D02*
X121737500Y-64110000D01*
X122537500Y-64110000D02*
X123337500Y-64110000D01*
X121237500Y-61040000D02*
X120997500Y-60710000D01*
X121477500Y-60710000D01*
X121237500Y-61040000D01*
G36*
X121237500Y-61040000D02*
G01*
X120997500Y-60710000D01*
X121477500Y-60710000D01*
X121237500Y-61040000D01*
G37*
%TO.C,C1*%
X134684420Y-61690000D02*
X134965580Y-61690000D01*
X134684420Y-62710000D02*
X134965580Y-62710000D01*
%TO.C,R1*%
X135162742Y-72807500D02*
X135637258Y-72807500D01*
X135162742Y-73852500D02*
X135637258Y-73852500D01*
%TO.C,J2*%
X100735000Y-63260000D02*
X100735000Y-65120000D01*
X100735000Y-63260000D02*
X100935000Y-63060000D01*
X100735000Y-65120000D02*
X100935000Y-65330000D01*
X100735000Y-72210000D02*
X101085000Y-71700000D01*
X100735000Y-74520000D02*
X100735000Y-72210000D01*
X100735000Y-74520000D02*
X100935000Y-74720000D01*
X100935000Y-74720000D02*
X100935000Y-74980000D01*
X101085000Y-65330000D02*
X100935000Y-65330000D01*
X101085000Y-65330000D02*
X101085000Y-71700000D01*
X105695000Y-62230000D02*
X103895000Y-62230000D01*
X111695000Y-62230000D02*
X106995000Y-62230000D01*
X117005000Y-62230000D02*
X113395000Y-62230000D01*
X117005000Y-62680000D02*
X117005000Y-62230000D01*
X117005000Y-74280000D02*
X117005000Y-76200000D01*
X117005000Y-76200000D02*
X102995000Y-76200000D01*
%TO.C,C3*%
X135259420Y-67800000D02*
X135540580Y-67800000D01*
X135259420Y-68820000D02*
X135540580Y-68820000D01*
D10*
%TO.C,U2*%
X121925000Y-66375000D02*
X121925000Y-66600000D01*
X121925000Y-66375000D02*
X122250000Y-66375000D01*
X121925000Y-73625000D02*
X121925000Y-73300000D01*
X121925000Y-73625000D02*
X122250000Y-73625000D01*
X129175000Y-66375000D02*
X128850000Y-66375000D01*
X129175000Y-66375000D02*
X129175000Y-66700000D01*
X129175000Y-73625000D02*
X128850000Y-73625000D01*
X129175000Y-73625000D02*
X129175000Y-73300000D01*
D11*
X121160000Y-66660000D02*
X120820000Y-66190000D01*
X121500000Y-66190000D01*
X121160000Y-66660000D01*
G36*
X121160000Y-66660000D02*
G01*
X120820000Y-66190000D01*
X121500000Y-66190000D01*
X121160000Y-66660000D01*
G37*
%TD*%
M02*
