%TF.GenerationSoftware,KiCad,Pcbnew,8.0.8*%
%TF.CreationDate,2025-06-30T12:07:11+05:30*%
%TF.ProjectId,openlog,6f70656e-6c6f-4672-9e6b-696361645f70,rev?*%
%TF.SameCoordinates,Original*%
%TF.FileFunction,Soldermask,Top*%
%TF.FilePolarity,Negative*%
%FSLAX46Y46*%
G04 Gerber Fmt 4.6, Leading zero omitted, Abs format (unit mm)*
G04 Created by KiCad (PCBNEW 8.0.8) date 2025-06-30 12:07:11*
%MOMM*%
%LPD*%
G01*
G04 APERTURE LIST*
G04 Aperture macros list*
%AMRoundRect*
0 Rectangle with rounded corners*
0 $1 Rounding radius*
0 $2 $3 $4 $5 $6 $7 $8 $9 X,Y pos of 4 corners*
0 Add a 4 corners polygon primitive as box body*
4,1,4,$2,$3,$4,$5,$6,$7,$8,$9,$2,$3,0*
0 Add four circle primitives for the rounded corners*
1,1,$1+$1,$2,$3*
1,1,$1+$1,$4,$5*
1,1,$1+$1,$6,$7*
1,1,$1+$1,$8,$9*
0 Add four rect primitives between the rounded corners*
20,1,$1+$1,$2,$3,$4,$5,0*
20,1,$1+$1,$4,$5,$6,$7,0*
20,1,$1+$1,$6,$7,$8,$9,0*
20,1,$1+$1,$8,$9,$2,$3,0*%
G04 Aperture macros list end*
%ADD10RoundRect,0.200000X-0.200000X-0.275000X0.200000X-0.275000X0.200000X0.275000X-0.200000X0.275000X0*%
%ADD11RoundRect,0.225000X-0.225000X-0.250000X0.225000X-0.250000X0.225000X0.250000X-0.225000X0.250000X0*%
%ADD12RoundRect,0.250000X-0.600000X-0.725000X0.600000X-0.725000X0.600000X0.725000X-0.600000X0.725000X0*%
%ADD13O,1.700000X1.950000*%
%ADD14R,1.000000X1.000000*%
%ADD15C,2.100000*%
%ADD16R,1.524000X1.524000*%
%ADD17C,1.524000*%
%ADD18R,1.600000X1.000000*%
%ADD19R,2.500000X3.000000*%
%ADD20RoundRect,0.218750X-0.218750X-0.256250X0.218750X-0.256250X0.218750X0.256250X-0.218750X0.256250X0*%
%ADD21RoundRect,0.150000X-0.512500X-0.150000X0.512500X-0.150000X0.512500X0.150000X-0.512500X0.150000X0*%
%ADD22R,1.200000X0.700000*%
%ADD23R,0.800000X1.000000*%
%ADD24R,1.200000X1.000000*%
%ADD25R,2.800000X1.000000*%
%ADD26R,1.900000X1.300000*%
%ADD27R,1.600000X0.550000*%
%ADD28R,0.550000X1.600000*%
G04 APERTURE END LIST*
D10*
%TO.C,R3*%
X127575000Y-61800000D03*
X129225000Y-61800000D03*
%TD*%
D11*
%TO.C,C2*%
X134625000Y-65800000D03*
X136175000Y-65800000D03*
%TD*%
D12*
%TO.C,J3*%
X116000000Y-56800000D03*
D13*
X118500000Y-56800000D03*
X121000000Y-56800000D03*
X123500000Y-56800000D03*
X126000000Y-56800000D03*
X128500000Y-56800000D03*
%TD*%
D14*
%TO.C,J1*%
X131400000Y-78200000D03*
%TD*%
D15*
%TO.C,H1*%
X98400000Y-55800000D03*
%TD*%
D16*
%TO.C,J4*%
X141200000Y-65400000D03*
D17*
X141200000Y-67400000D03*
X141200000Y-69400000D03*
X141200000Y-71400000D03*
%TD*%
D18*
%TO.C,Y1*%
X128300000Y-77530000D03*
X128300000Y-80070000D03*
D19*
X121750000Y-78800000D03*
%TD*%
D11*
%TO.C,C4*%
X134625000Y-70820000D03*
X136175000Y-70820000D03*
%TD*%
D10*
%TO.C,R2*%
X134575000Y-75840000D03*
X136225000Y-75840000D03*
%TD*%
D15*
%TO.C,H2*%
X146800000Y-56000000D03*
%TD*%
D20*
%TO.C,D2*%
X139000000Y-76800000D03*
X140575000Y-76800000D03*
%TD*%
%TO.C,D1*%
X134412500Y-78600000D03*
X135987500Y-78600000D03*
%TD*%
D21*
%TO.C,U1*%
X121400000Y-61600000D03*
X121400000Y-62550000D03*
X121400000Y-63500000D03*
X123675000Y-63500000D03*
X123675000Y-61600000D03*
%TD*%
D11*
%TO.C,C1*%
X134050000Y-62200000D03*
X135600000Y-62200000D03*
%TD*%
D15*
%TO.C,H4*%
X98200000Y-84200000D03*
%TD*%
D10*
%TO.C,R1*%
X134575000Y-73330000D03*
X136225000Y-73330000D03*
%TD*%
D15*
%TO.C,H3*%
X146600000Y-83800000D03*
%TD*%
D22*
%TO.C,J2*%
X116845000Y-71980000D03*
X116845000Y-70880000D03*
X116845000Y-69780000D03*
X116845000Y-68680000D03*
X116845000Y-67580000D03*
X116845000Y-66480000D03*
X116845000Y-65380000D03*
X116845000Y-64280000D03*
X116845000Y-63330000D03*
D23*
X106345000Y-62380000D03*
D24*
X112545000Y-62380000D03*
D25*
X102195000Y-62380000D03*
D24*
X116845000Y-73530000D03*
D26*
X101745000Y-75880000D03*
D22*
X106660000Y-76165000D03*
X112710000Y-76125000D03*
X115260000Y-76165000D03*
X110000000Y-76200000D03*
%TD*%
D11*
%TO.C,C3*%
X134625000Y-68310000D03*
X136175000Y-68310000D03*
%TD*%
D27*
%TO.C,U2*%
X121300000Y-67200000D03*
X121300000Y-68000000D03*
X121300000Y-68800000D03*
X121300000Y-69600000D03*
X121300000Y-70400000D03*
X121300000Y-71200000D03*
X121300000Y-72000000D03*
X121300000Y-72800000D03*
D28*
X122750000Y-74250000D03*
X123550000Y-74250000D03*
X124350000Y-74250000D03*
X125150000Y-74250000D03*
X125950000Y-74250000D03*
X126750000Y-74250000D03*
X127550000Y-74250000D03*
X128350000Y-74250000D03*
D27*
X129800000Y-72800000D03*
X129800000Y-72000000D03*
X129800000Y-71200000D03*
X129800000Y-70400000D03*
X129800000Y-69600000D03*
X129800000Y-68800000D03*
X129800000Y-68000000D03*
X129800000Y-67200000D03*
D28*
X128350000Y-65750000D03*
X127550000Y-65750000D03*
X126750000Y-65750000D03*
X125950000Y-65750000D03*
X125150000Y-65750000D03*
X124350000Y-65750000D03*
X123550000Y-65750000D03*
X122750000Y-65750000D03*
%TD*%
M02*
